<svg width="35" height="35" viewBox="0 0 35 35" fill="none" xmlns="http://www.w3.org/2000/svg">
<g id="App logo 237">
<path id="Vector" fill-rule="evenodd" clip-rule="evenodd" d="M26.6225 0.0727539C31.6601 0.0727539 34.9278 3.34039 34.9278 8.37801V26.6223C34.9278 31.6599 31.6601 34.9275 26.6225 34.9275H8.37825C3.34063 34.9275 0.072998 31.6599 0.072998 26.6223V8.37801C0.072998 3.34039 3.34063 0.0727539 8.37825 0.0727539H26.6225Z" fill="#F7F7F7"/>
<path id="Vector_2" fill-rule="evenodd" clip-rule="evenodd" d="M9.45846 27.7844C9.45846 27.7844 9.59358 29.8824 11.8936 29.9887C11.8936 29.9887 17.0809 29.5077 19.1294 28.8551C19.1294 28.8551 21.7628 28.2248 23.6985 26.8742C25.6346 25.5237 26.9626 23.2728 26.9626 23.2728C26.9626 23.2728 29.4836 19.2435 28.3579 14.3817C27.2326 9.51968 24.017 7.43385 24.017 7.43385C24.017 7.43385 19.9537 4.09816 13.738 5.06791C7.05272 5.92316 6.59633 8.03373 6.59633 8.03373C6.59633 8.03373 6.22742 9.32449 7.59501 9.98284C7.59501 9.98284 8.64454 10.3843 9.45846 10.0455V27.7844ZM13.8634 25.6159C13.8634 25.6159 17.1754 25.2685 18.7145 24.7338C18.7145 24.7338 20.3668 24.2074 21.3451 23.4119C22.3234 22.616 23.179 21.0317 23.179 21.0317C23.179 21.0317 24.7565 18.4476 23.9607 14.7559C23.1651 11.0645 19.4499 9.72913 19.4499 9.72913C19.4499 9.72913 17.3904 8.75113 13.8634 9.38926V25.6159Z" fill="white"/>
</g>
</svg>
