<svg width="20" height="21" viewBox="0 0 20 21" fill="none" xmlns="http://www.w3.org/2000/svg">
<g id="copy">
<path id="Vector" d="M16.6667 8H9.16667C8.24619 8 7.5 8.74619 7.5 9.66667V17.1667C7.5 18.0871 8.24619 18.8333 9.16667 18.8333H16.6667C17.5871 18.8333 18.3333 18.0871 18.3333 17.1667V9.66667C18.3333 8.74619 17.5871 8 16.6667 8Z" stroke="#444444" stroke-linecap="round" stroke-linejoin="round"/>
<path id="Vector_2" d="M4.16675 13H3.33341C2.89139 13 2.46746 12.8244 2.1549 12.5118C1.84234 12.1992 1.66675 11.7753 1.66675 11.3333V3.83329C1.66675 3.39127 1.84234 2.96734 2.1549 2.65478C2.46746 2.34222 2.89139 2.16663 3.33341 2.16663H10.8334C11.2754 2.16663 11.6994 2.34222 12.0119 2.65478C12.3245 2.96734 12.5001 3.39127 12.5001 3.83329V4.66663" stroke="#444444" stroke-linecap="round" stroke-linejoin="round"/>
</g>
</svg>
