<svg width="20" height="21" viewBox="0 0 20 21" fill="none" xmlns="http://www.w3.org/2000/svg">
<g id="edit">
<path id="Vector" d="M9.16675 3.83337H3.33341C2.89139 3.83337 2.46746 4.00897 2.1549 4.32153C1.84234 4.63409 1.66675 5.05801 1.66675 5.50004V17.1667C1.66675 17.6087 1.84234 18.0327 2.1549 18.3452C2.46746 18.6578 2.89139 18.8334 3.33341 18.8334H15.0001C15.4421 18.8334 15.866 18.6578 16.1786 18.3452C16.4912 18.0327 16.6667 17.6087 16.6667 17.1667V11.3334" stroke="#444444" stroke-linecap="round" stroke-linejoin="round"/>
<path id="Vector_2" d="M15.4167 2.58332C15.7483 2.2518 16.1979 2.06555 16.6667 2.06555C17.1356 2.06555 17.5852 2.2518 17.9167 2.58332C18.2483 2.91484 18.4345 3.36448 18.4345 3.83332C18.4345 4.30216 18.2483 4.7518 17.9167 5.08332L10.0001 13L6.66675 13.8333L7.50008 10.5L15.4167 2.58332Z" stroke="#444444" stroke-linecap="round" stroke-linejoin="round"/>
</g>
</svg>
