<svg width="20" height="21" viewBox="0 0 20 21" fill="none" xmlns="http://www.w3.org/2000/svg">
<g id="paperclip">
<path id="Vector" d="M17.8666 9.70835L10.2082 17.3667C9.27005 18.3049 7.99757 18.832 6.67075 18.832C5.34393 18.832 4.07145 18.3049 3.13325 17.3667C2.19505 16.4285 1.66797 15.156 1.66797 13.8292C1.66797 12.5024 2.19505 11.2299 3.13325 10.2917L10.7916 2.63335C11.4171 2.00788 12.2654 1.65649 13.1499 1.65649C14.0345 1.65649 14.8828 2.00788 15.5082 2.63335C16.1337 3.25882 16.4851 4.10713 16.4851 4.99168C16.4851 5.87623 16.1337 6.72455 15.5082 7.35002L7.84158 15.0083C7.52885 15.3211 7.10469 15.4968 6.66242 15.4968C6.22014 15.4968 5.79598 15.3211 5.48325 15.0083C5.17051 14.6956 4.99482 14.2715 4.99482 13.8292C4.99482 13.3869 5.17051 12.9627 5.48325 12.65L12.5582 5.58335" stroke="#444444" stroke-linecap="round" stroke-linejoin="round"/>
</g>
</svg>
