<svg width="28" height="29" viewBox="0 0 28 29" fill="none" xmlns="http://www.w3.org/2000/svg">
<path fill-rule="evenodd" clip-rule="evenodd" d="M21.3021 0.558594C25.3322 0.558594 27.9463 3.1727 27.9463 7.2028V21.7982C27.9463 25.8283 25.3322 28.4424 21.3021 28.4424H6.7067C2.67661 28.4424 0.0625 25.8283 0.0625 21.7982V7.2028C0.0625 3.1727 2.67661 0.558594 6.7067 0.558594H21.3021Z" fill="#EAE9E9"/>
<path fill-rule="evenodd" clip-rule="evenodd" d="M1.90998 2.40998C0.765305 3.55466 0.116183 5.20004 0.116183 7.20229V21.7977C0.116183 23.8 0.765305 25.4453 1.90998 26.59C3.05466 27.7347 4.70004 28.3838 6.70229 28.3838H21.2977C23.3 28.3838 24.9453 27.7347 26.09 26.59C27.2347 25.4453 27.8838 23.8 27.8838 21.7977V7.20229C27.8838 5.20004 27.2347 3.55466 26.09 2.40998C24.9453 1.2653 23.3 0.616183 21.2977 0.616183H6.70229C4.70004 0.616183 3.05466 1.2653 1.90998 2.40998ZM1.82783 2.32783C2.99773 1.15793 4.67445 0.5 6.70229 0.5H21.2977C23.3256 0.5 25.0023 1.15793 26.1722 2.32783C27.3421 3.49773 28 5.17445 28 7.20229V21.7977C28 23.8256 27.3421 25.5023 26.1722 26.6722C25.0023 27.8421 23.3256 28.5 21.2977 28.5H6.70229C4.67445 28.5 2.99773 27.8421 1.82783 26.6722C0.657932 25.5023 0 23.8256 0 21.7977V7.20229C0 5.17445 0.657932 3.49773 1.82783 2.32783Z" fill="#EAE9E9"/>
<path fill-rule="evenodd" clip-rule="evenodd" d="M7.56813 22.7268C7.56813 22.7268 7.67623 24.4052 9.51626 24.4902C9.51626 24.4902 13.6661 24.1054 15.3049 23.5833C15.3049 23.5833 17.4116 23.079 18.9602 21.9986C20.509 20.9182 21.5714 19.1175 21.5714 19.1175C21.5714 19.1175 23.5883 15.894 22.6877 12.0046C21.7875 8.11496 19.2149 6.4463 19.2149 6.4463C19.2149 6.4463 15.9643 3.77775 10.9918 4.55355C5.64355 5.23775 5.27843 6.92621 5.27843 6.92621C5.27843 6.92621 4.9833 7.95881 6.07737 8.48549C6.07737 8.48549 6.917 8.80667 7.56813 8.53559V22.7268ZM11.0921 20.992C11.0921 20.992 13.7417 20.7141 14.973 20.2863C14.973 20.2863 16.2948 19.8652 17.0774 19.2287C17.8601 18.592 18.5446 17.3246 18.5446 17.3246C18.5446 17.3246 19.8066 15.2573 19.1699 12.3039C18.5335 9.35082 15.5613 8.28252 15.5613 8.28252C15.5613 8.28252 13.9137 7.50012 11.0921 8.01063V20.992Z" fill="#EAE9E9"/>
</svg>
