<svg width="20" height="19" viewBox="0 0 20 19" fill="none" xmlns="http://www.w3.org/2000/svg">
<g clip-path="url(#clip0_6081_10880)">
<path d="M3.7589 11.9922C4.29923 13.5259 5.32335 14.8424 6.67695 15.7434C8.03055 16.6444 9.64031 17.081 11.2637 16.9876C12.887 16.8942 14.4361 16.2757 15.6773 15.2254C16.9186 14.175 17.7849 12.7497 18.1458 11.1642C18.5066 9.57868 18.3423 7.91886 17.6778 6.43481C17.0132 4.95076 15.8843 3.72289 14.4613 2.9362C13.0382 2.1495 11.398 1.84661 9.7878 2.07316C8.17761 2.2997 6.68466 3.04341 5.5339 4.19223L1.66724 7.82556" stroke="#777777" stroke-width="1.5" stroke-linecap="round" stroke-linejoin="round"/>
<path d="M1.44849 3.16602V7.91602H6.11486" stroke="#777777" stroke-width="1.5" stroke-linecap="round" stroke-linejoin="round"/>
<path d="M10.0032 5.54102V10.291L13.1141 11.8744" stroke="#777777" stroke-width="1.5" stroke-linecap="round" stroke-linejoin="round"/>
</g>
<defs>
<clipPath id="clip0_6081_10880">
<rect width="18.6655" height="19" fill="white" transform="translate(0.667236)"/>
</clipPath>
</defs>
</svg>
