<svg width="17" height="17" viewBox="0 0 17 17" fill="none" xmlns="http://www.w3.org/2000/svg">
<g id="inbox">
<path id="Vector" d="M15.1663 8.5H11.1663L9.83301 10.5H7.16634L5.83301 8.5H1.83301" stroke="#414141" stroke-linecap="round" stroke-linejoin="round"/>
<path id="Vector_2" d="M4.13301 3.90699L1.83301 8.50033V12.5003C1.83301 12.8539 1.97348 13.1931 2.22353 13.4431C2.47358 13.6932 2.81272 13.8337 3.16634 13.8337H13.833C14.1866 13.8337 14.5258 13.6932 14.7758 13.4431C15.0259 13.1931 15.1663 12.8539 15.1663 12.5003V8.50033L12.8663 3.90699C12.756 3.68485 12.5858 3.49791 12.375 3.36718C12.1642 3.23645 11.9211 3.16712 11.673 3.16699H5.32634C5.07828 3.16712 4.83518 3.23645 4.62437 3.36718C4.41356 3.49791 4.24339 3.68485 4.13301 3.90699Z" stroke="#414141" stroke-linecap="round" stroke-linejoin="round"/>
</g>
</svg>
