<svg width="9" height="11" viewBox="0 0 9 11" fill="none" xmlns="http://www.w3.org/2000/svg">
<path d="M7.22222 5.33301H1.77778C1.34822 5.33301 1 5.71289 1 6.18149V9.15119C1 9.61979 1.34822 9.99967 1.77778 9.99967H7.22222C7.65178 9.99967 8 9.61979 8 9.15119V6.18149C8 5.71289 7.65178 5.33301 7.22222 5.33301Z" fill="#888888" stroke="#888888" stroke-width="1.5" stroke-linecap="round" stroke-linejoin="round"/>
<path d="M2.16675 5.33317V3.2591C2.16675 2.5715 2.41258 1.91206 2.85017 1.42586C3.28775 0.939651 3.88124 0.666504 4.50008 0.666504C5.11892 0.666504 5.71241 0.939651 6.15 1.42586C6.58758 1.91206 6.83341 2.5715 6.83341 3.2591V5.33317" stroke="#888888" stroke-linecap="round" stroke-linejoin="round"/>
</svg>
