<svg width="16" height="16" viewBox="0 0 16 16" fill="none" xmlns="http://www.w3.org/2000/svg">
<g id="refresh-cw" clip-path="url(#clip0_5131_11326)">
<path id="Vector" d="M15.334 2.66699V6.66699H11.334" stroke="white" stroke-width="1.5" stroke-linecap="round" stroke-linejoin="round"/>
<path id="Vector_2" d="M0.666016 13.333V9.33301H4.66602" stroke="white" stroke-width="1.5" stroke-linecap="round" stroke-linejoin="round"/>
<path id="Vector_3" d="M2.33935 6.00038C2.67746 5.0449 3.2521 4.19064 4.00966 3.51732C4.76722 2.844 5.68299 2.37355 6.67154 2.14988C7.66009 1.92621 8.68919 1.9566 9.66281 2.23823C10.6364 2.51985 11.5229 3.04352 12.2393 3.76038L15.3327 6.66704M0.666016 9.33371L3.75935 12.2404C4.47585 12.9572 5.36226 13.4809 6.33589 13.7625C7.30951 14.0441 8.33861 14.0745 9.32716 13.8509C10.3157 13.6272 11.2315 13.1568 11.989 12.4834C12.7466 11.8101 13.3212 10.9559 13.6593 10.0004" stroke="white" stroke-width="1.5" stroke-linecap="round" stroke-linejoin="round"/>
</g>
<defs>
<clipPath id="clip0_5131_11326">
<rect width="16" height="16" fill="white"/>
</clipPath>
</defs>
</svg>
