<svg width="16" height="16" viewBox="0 0 16 16" fill="none" xmlns="http://www.w3.org/2000/svg">
<path d="M7.55156 2.24132C7.73498 1.86974 8.26485 1.86974 8.44827 2.24132L9.9437 5.27089C10.0165 5.41831 10.1571 5.52054 10.3197 5.54432L13.6647 6.03323C14.0746 6.09315 14.238 6.59708 13.9412 6.88616L11.5216 9.24285C11.4037 9.35772 11.3499 9.52328 11.3777 9.68555L11.9486 13.0143C12.0187 13.4228 11.5899 13.7343 11.2231 13.5414L8.23264 11.9687C8.08695 11.8921 7.91288 11.8921 7.76719 11.9687L4.77673 13.5414C4.40992 13.7343 3.98115 13.4228 4.0512 13.0143L4.62213 9.68555C4.64996 9.52328 4.59613 9.35772 4.47819 9.24285L2.05859 6.88616C1.76179 6.59708 1.92519 6.09315 2.33514 6.03323L5.6801 5.54432C5.84278 5.52054 5.98337 5.41831 6.05614 5.27089L7.55156 2.24132Z" fill="#FFC107" stroke="#FFC107" stroke-linecap="round" stroke-linejoin="round"/>
</svg>
