<svg width="16" height="17" viewBox="0 0 16 17" fill="none" xmlns="http://www.w3.org/2000/svg">
<path d="M7.5523 2.74132C7.73571 2.36974 8.26559 2.36974 8.449 2.74132L9.94443 5.77089C10.0172 5.91831 10.1578 6.02054 10.3205 6.04432L13.6654 6.53323C14.0754 6.59315 14.2388 7.09708 13.942 7.38616L11.5224 9.74285C11.4044 9.85772 11.3506 10.0233 11.3784 10.1855L11.9494 13.5143C12.0194 13.9228 11.5906 14.2343 11.2238 14.0414L8.23338 12.4687C8.08768 12.3921 7.91362 12.3921 7.76792 12.4687L4.77747 14.0414C4.41065 14.2343 3.98188 13.9228 4.05194 13.5143L4.62286 10.1855C4.65069 10.0233 4.59686 9.85772 4.47892 9.74285L2.05932 7.38616C1.76253 7.09708 1.92592 6.59315 2.33588 6.53323L5.68083 6.04432C5.84351 6.02054 5.9841 5.91831 6.05687 5.77089L7.5523 2.74132Z" stroke="#ADABA8" stroke-linecap="round" stroke-linejoin="round"/>
</svg>
