<svg width="131" height="69" viewBox="0 0 131 69" fill="none" xmlns="http://www.w3.org/2000/svg">
<g clip-path="url(#clip0_6081_6196)">
<rect width="131" height="69" rx="12" fill="white"/>
<path d="M0.5 12C0.5 5.64873 5.64873 0.5 12 0.5H18.5V68.5H12C5.64873 68.5 0.5 63.3513 0.5 57V12Z" fill="#F5F5F5"/>
<path d="M0.5 12C0.5 5.64873 5.64873 0.5 12 0.5H18.5V68.5H12C5.64873 68.5 0.5 63.3513 0.5 57V12Z" stroke="#E8E7E4"/>
<rect x="4" y="12" width="10" height="1.5" rx="0.75" fill="#E0E0E0"/>
<rect x="4" y="17.5" width="10" height="1.5" rx="0.75" fill="#E0E0E0"/>
<rect x="4" y="23" width="10" height="1.5" rx="0.75" fill="#E0E0E0"/>
<rect x="4" y="28.5" width="10" height="1.5" rx="0.75" fill="#E0E0E0"/>
<rect x="0.25" y="-0.25" width="112.5" height="0.5" transform="matrix(1 0 0 -1 19 0.5)" fill="#2D2D2D"/>
<rect x="0.25" y="-0.25" width="112.5" height="0.5" transform="matrix(1 0 0 -1 19 0.5)" stroke="#E8E7E4" stroke-width="0.5"/>
<rect x="0.25" y="-0.25" width="112.5" height="0.5" transform="matrix(1 0 0 -1 19 9.5)" fill="#2D2D2D"/>
<rect x="0.25" y="-0.25" width="112.5" height="0.5" transform="matrix(1 0 0 -1 19 9.5)" stroke="#E8E7E4" stroke-width="0.5"/>
<rect x="0.25" y="-0.25" width="112.5" height="0.5" transform="matrix(1 0 0 -1 19 18.5)" fill="#2D2D2D"/>
<rect x="0.25" y="-0.25" width="112.5" height="0.5" transform="matrix(1 0 0 -1 19 18.5)" stroke="#E8E7E4" stroke-width="0.5"/>
<rect x="0.25" y="-0.25" width="112.5" height="0.5" transform="matrix(1 0 0 -1 19 27.5)" fill="#2D2D2D"/>
<rect x="0.25" y="-0.25" width="112.5" height="0.5" transform="matrix(1 0 0 -1 19 27.5)" stroke="#E8E7E4" stroke-width="0.5"/>
<rect x="0.25" y="-0.25" width="112.5" height="0.5" transform="matrix(1 0 0 -1 19 36.5)" fill="#2D2D2D"/>
<rect x="0.25" y="-0.25" width="112.5" height="0.5" transform="matrix(1 0 0 -1 19 36.5)" stroke="#E8E7E4" stroke-width="0.5"/>
<rect x="24" y="39" width="58" height="4" rx="2" fill="#CFCFCF"/>
<rect x="24" y="47" width="8" height="8" rx="4" fill="#51A3FF"/>
<rect x="36" y="47" width="17" height="3" rx="1.5" fill="#D4D4D4"/>
<rect x="36" y="52" width="17" height="3" rx="1.5" fill="#D4D4D4"/>
<rect x="24" y="59" width="22" height="2" rx="1" fill="#D4D4D4"/>
<rect x="24" y="64" width="58" height="2" rx="1" fill="#D4D4D4"/>
</g>
<rect x="0.5" y="0.5" width="130" height="68" rx="11.5" stroke="#E8E7E4"/>
<defs>
<clipPath id="clip0_6081_6196">
<rect width="131" height="69" rx="12" fill="white"/>
</clipPath>
</defs>
</svg>
