<svg width="20" height="20" viewBox="0 0 20 20" fill="none" xmlns="http://www.w3.org/2000/svg">
<path d="M10.0003 18.3334C14.6027 18.3334 18.3337 14.6025 18.3337 10.0001C18.3337 5.39771 14.6027 1.66675 10.0003 1.66675C5.39795 1.66675 1.66699 5.39771 1.66699 10.0001C1.66699 14.6025 5.39795 18.3334 10.0003 18.3334Z" stroke="#333333" stroke-linecap="round" stroke-linejoin="round"/>
<g clip-path="url(#clip0_1935_25670)">
<path d="M12.375 7.12511C12.4735 7.02662 12.5904 6.94849 12.7191 6.89519C12.8478 6.84189 12.9857 6.81445 13.125 6.81445C13.2643 6.81445 13.4022 6.84189 13.5309 6.89519C13.6596 6.94849 13.7765 7.02662 13.875 7.12511C13.9735 7.2236 14.0516 7.34053 14.1049 7.46922C14.1582 7.5979 14.1857 7.73583 14.1857 7.87511C14.1857 8.0144 14.1582 8.15233 14.1049 8.28101C14.0516 8.4097 13.9735 8.52662 13.875 8.62511L8.8125 13.6876L6.75 14.2501L7.3125 12.1876L12.375 7.12511Z" stroke="#333333" stroke-linecap="round" stroke-linejoin="round"/>
</g>
<defs>
<clipPath id="clip0_1935_25670">
<rect width="9" height="9" fill="white" transform="translate(6 6)"/>
</clipPath>
</defs>
</svg>
