<svg width="20" height="21" viewBox="0 0 20 21" fill="none" xmlns="http://www.w3.org/2000/svg">
<g id="video-off" clip-path="url(#clip0_1935_24646)">
<path id="Vector" d="M13.333 13.8333V14.6667C13.333 15.1087 13.1574 15.5326 12.8449 15.8452C12.5323 16.1577 12.1084 16.3333 11.6663 16.3333H2.49967C2.05765 16.3333 1.63372 16.1577 1.32116 15.8452C1.0086 15.5326 0.833008 15.1087 0.833008 14.6667V6.33332C0.833008 5.8913 1.0086 5.46737 1.32116 5.15481C1.63372 4.84225 2.05765 4.66666 2.49967 4.66666H4.16634M8.88301 4.66666H11.6663C12.1084 4.66666 12.5323 4.84225 12.8449 5.15481C13.1574 5.46737 13.333 5.8913 13.333 6.33332V9.11666L14.1663 9.94999L19.1663 6.33332V14.6667" stroke="#727272" stroke-linecap="round" stroke-linejoin="round"/>
<path id="Vector_2" d="M0.833008 1.33334L19.1663 19.6667" stroke="#C80000" stroke-linecap="round" stroke-linejoin="round"/>
</g>
<defs>
<clipPath id="clip0_1935_24646">
<rect width="20" height="20" fill="white" transform="translate(0 0.5)"/>
</clipPath>
</defs>
</svg>
