<svg width="17" height="17" viewBox="0 0 17 17" fill="none" xmlns="http://www.w3.org/2000/svg">
<path d="M0.5 2C0.5 1.17157 1.17157 0.5 2 0.5H15C15.8284 0.5 16.5 1.17157 16.5 2V6C16.5 6.82843 15.8284 7.5 15 7.5H2C1.17157 7.5 0.5 6.82843 0.5 6V2Z" stroke="#727272"/>
<path d="M0.5 10.8C0.5 9.97156 1.17157 9.29999 2 9.29999H6C6.82843 9.29999 7.5 9.97156 7.5 10.8V14.8C7.5 15.6284 6.82843 16.3 6 16.3H2C1.17157 16.3 0.5 15.6284 0.5 14.8V10.8Z" stroke="#727272"/>
<path d="M9.5 10.8C9.5 9.97156 10.1716 9.29999 11 9.29999H15C15.8284 9.29999 16.5 9.97156 16.5 10.8V14.8C16.5 15.6284 15.8284 16.3 15 16.3H11C10.1716 16.3 9.5 15.6284 9.5 14.8V10.8Z" stroke="#727272"/>
</svg>
