<svg width="20" height="21" viewBox="0 0 20 21" fill="none" xmlns="http://www.w3.org/2000/svg">
<g id="link-2">
<path id="Vector" d="M12.5 6.33325H15C15.5472 6.33325 16.089 6.44103 16.5945 6.65042C17.1 6.85982 17.5593 7.16673 17.9463 7.55364C18.3332 7.94055 18.6401 8.39988 18.8495 8.9054C19.0589 9.41093 19.1666 9.95274 19.1666 10.4999C19.1666 11.0471 19.0589 11.5889 18.8495 12.0944C18.6401 12.6 18.3332 13.0593 17.9463 13.4462C17.5593 13.8331 17.1 14.14 16.5945 14.3494C16.089 14.5588 15.5472 14.6666 15 14.6666H12.5M7.49998 14.6666H4.99998C4.45281 14.6666 3.91099 14.5588 3.40547 14.3494C2.89994 14.14 2.44061 13.8331 2.0537 13.4462C1.2723 12.6648 0.833313 11.605 0.833313 10.4999C0.833313 9.39485 1.2723 8.33504 2.0537 7.55364C2.8351 6.77224 3.89491 6.33325 4.99998 6.33325H7.49998" stroke="#51A3FF" stroke-width="1.5" stroke-linecap="round" stroke-linejoin="round"/>
<path id="Vector_2" d="M6.66669 10.5H13.3334" stroke="#51A3FF" stroke-width="1.5" stroke-linecap="round" stroke-linejoin="round"/>
</g>
</svg>
