<svg width="16" height="17" viewBox="0 0 16 17" fill="none" xmlns="http://www.w3.org/2000/svg">
<g id="copy">
<path id="Vector" d="M13.3333 6.5H7.33333C6.59695 6.5 6 7.09695 6 7.83333V13.8333C6 14.5697 6.59695 15.1667 7.33333 15.1667H13.3333C14.0697 15.1667 14.6667 14.5697 14.6667 13.8333V7.83333C14.6667 7.09695 14.0697 6.5 13.3333 6.5Z" stroke="#414141" stroke-width="1.5" stroke-linecap="round" stroke-linejoin="round"/>
<path id="Vector_2" d="M3.33325 10.4999H2.66659C2.31296 10.4999 1.97382 10.3594 1.72378 10.1094C1.47373 9.85935 1.33325 9.52021 1.33325 9.16658V3.16659C1.33325 2.81296 1.47373 2.47382 1.72378 2.22378C1.97382 1.97373 2.31296 1.83325 2.66659 1.83325H8.66658C9.02021 1.83325 9.35935 1.97373 9.60939 2.22378C9.85944 2.47382 9.99992 2.81296 9.99992 3.16659V3.83325" stroke="#414141" stroke-width="1.5" stroke-linecap="round" stroke-linejoin="round"/>
</g>
</svg>
