<?xml version="1.0" encoding="utf-8"?>
<!-- Generator: Adobe Illustrator 17.0.0, SVG Export Plug-In . SVG Version: 6.00 Build 0)  -->
<!DOCTYPE svg PUBLIC "-//W3C//DTD SVG 1.1//EN" "http://www.w3.org/Graphics/SVG/1.1/DTD/svg11.dtd">
<svg version="1.1" id="Слой_1" xmlns="http://www.w3.org/2000/svg" xmlns:xlink="http://www.w3.org/1999/xlink" x="0px" y="0px"
	 width="389.12px" height="297.472px" viewBox="61.44 56.013 389.12 297.472" enable-background="new 61.44 56.013 389.12 297.472"
	 xml:space="preserve">
<path fill="#FFFFFF" d="M441.958,184.32L321.946,64.307c-11.059-11.059-29.491-11.059-40.55,0s-11.059,29.491,0,40.55l70.861,71.27
	H90.112c-15.974,0-28.672,12.698-28.672,28.672s12.698,28.672,28.672,28.672h262.144l-70.861,70.861
	c-11.059,11.059-11.059,29.491,0,40.55c5.734,5.734,13.107,8.602,20.48,8.602s14.746-2.867,20.48-8.602L441.958,225.28
	c5.325-5.325,8.602-12.698,8.602-20.48C450.56,197.018,447.693,189.645,441.958,184.32z"/>
</svg>
