<?xml version="1.0" encoding="utf-8"?>
<!-- Generator: Adobe Illustrator 17.0.0, SVG Export Plug-In . SVG Version: 6.00 Build 0)  -->
<!DOCTYPE svg PUBLIC "-//W3C//DTD SVG 1.1//EN" "http://www.w3.org/Graphics/SVG/1.1/DTD/svg11.dtd">
<svg version="1.1" id="Слой_1" xmlns="http://www.w3.org/2000/svg" xmlns:xlink="http://www.w3.org/1999/xlink" x="0px" y="0px"
	 width="358.4px" height="307.2px" viewBox="76.8 51.2 358.4 307.2" enable-background="new 76.8 51.2 358.4 307.2"
	 xml:space="preserve">
<title>Artboard 7</title>
<g>
	<path fill="#FFFFFF" d="M140.8,281.6c-2.101-0.01-4.167-0.538-6.016-1.536c-4.164-2.217-6.771-6.546-6.784-11.264v-38.4h-12.8
		c-21.208,0-38.4-17.192-38.4-38.4V89.6c0-21.208,17.192-38.4,38.4-38.4h179.2c21.208,0,38.4,17.192,38.4,38.4V192
		c0,21.208-17.192,38.4-38.4,38.4h-72.96l-73.6,49.024C145.757,280.824,143.309,281.58,140.8,281.6z M115.2,76.8
		c-7.069,0-12.8,5.731-12.8,12.8V192c0,7.069,5.731,12.8,12.8,12.8h25.6c7.069,0,12.8,5.731,12.8,12.8v27.264l56.96-38.4
		c2.138-1.22,4.582-1.798,7.04-1.664h76.8c7.069,0,12.8-5.731,12.8-12.8V89.6c0-7.069-5.731-12.8-12.8-12.8H115.2z"/>
	<path fill="#FFFFFF" d="M371.2,358.4c-2.509-0.02-4.957-0.776-7.04-2.176l-73.6-49.024H192c-7.069,0-12.8-5.731-12.8-12.8
		c0-7.069,5.731-12.8,12.8-12.8h102.4c2.509,0.02,4.957,0.776,7.04,2.176l56.96,38.4V294.4c0-7.069,5.731-12.8,12.8-12.8h25.6
		c7.069,0,12.8-5.731,12.8-12.8V166.4c0-7.069-5.731-12.8-12.8-12.8h-25.6c-7.069,0-12.8-5.731-12.8-12.8s5.731-12.8,12.8-12.8h25.6
		c21.208,0,38.4,17.192,38.4,38.4v102.4c0,21.208-17.192,38.4-38.4,38.4H384v38.4c-0.013,4.718-2.62,9.047-6.784,11.264
		C375.367,357.862,373.301,358.389,371.2,358.4z"/>
</g>
</svg>
