<?xml version="1.0" encoding="utf-8"?>
<!-- Generator: Adobe Illustrator 17.0.0, SVG Export Plug-In . SVG Version: 6.00 Build 0)  -->
<!DOCTYPE svg PUBLIC "-//W3C//DTD SVG 1.1//EN" "http://www.w3.org/Graphics/SVG/1.1/DTD/svg11.dtd">
<svg version="1.1" id="Слой_1" xmlns="http://www.w3.org/2000/svg" xmlns:xlink="http://www.w3.org/1999/xlink" x="0px" y="0px"
	 width="358.4px" height="358.4px" viewBox="76.8 25.6 358.4 358.4" enable-background="new 76.8 25.6 358.4 358.4"
	 xml:space="preserve">
<path d="M140.8,25.6h230.4c50.688,0,64,41.856,64,64V128c0,7.04-5.76,12.8-12.8,12.8c-7.04,0-12.8-5.76-12.8-12.8V89.728
	C409.472,83.2,407.296,51.2,371.2,51.2H140.928C134.4,51.328,102.4,53.504,102.4,89.6v230.272c0.128,6.528,2.304,38.528,38.4,38.528
	h230.272c6.528-0.128,38.528-2.304,38.528-38.4v-38.4c0-7.04,5.76-12.8,12.8-12.8c7.04,0,12.8,5.76,12.8,12.8V320
	c0,50.688-41.856,64-64,64H140.8c-50.688,0-64-41.856-64-64V89.6C76.8,38.912,118.656,25.6,140.8,25.6z M301.44,117.376
	c-5.888-3.968-13.824-2.304-17.664,3.584c-3.968,5.76-2.304,13.824,3.584,17.664c26.624,17.792,51.712,39.168,63.616,53.376H166.4
	c-7.04,0-12.8,5.76-12.8,12.8c0,7.04,5.76,12.8,12.8,12.8h184.576c-11.904,14.208-36.992,35.584-63.616,53.376
	c-5.888,3.84-7.552,11.904-3.584,17.664c2.432,3.712,6.528,5.76,10.624,5.76c2.432,0,4.864-0.64,7.04-2.176
	C326.272,275.712,384,234.112,384,204.8S326.272,133.888,301.44,117.376z"/>
</svg>
