<?xml version="1.0" encoding="utf-8"?>
<!-- Generator: Adobe Illustrator 17.0.0, SVG Export Plug-In . SVG Version: 6.00 Build 0)  -->
<!DOCTYPE svg PUBLIC "-//W3C//DTD SVG 1.1//EN" "http://www.w3.org/Graphics/SVG/1.1/DTD/svg11.dtd">
<svg version="1.1"
	 id="Слой_1" xmlns:inkscape="http://www.inkscape.org/namespaces/inkscape" xmlns:sodipodi="http://sodipodi.sourceforge.net/DTD/sodipodi-0.dtd" xmlns:svg="http://www.w3.org/2000/svg" xmlns:rdf="http://www.w3.org/1999/02/22-rdf-syntax-ns#" xmlns:cc="http://creativecommons.org/ns#" xmlns:dc="http://purl.org/dc/elements/1.1/"
	 xmlns="http://www.w3.org/2000/svg" xmlns:xlink="http://www.w3.org/1999/xlink" x="0px" y="0px" width="307.21px"
	 height="332.794px" viewBox="102.395 38.403 307.21 332.794" enable-background="new 102.395 38.403 307.21 332.794"
	 xml:space="preserve">
<g>
	<path fill="#FFFFFF" d="M256.3,38.407c-2.347-0.058-4.665,0.53-6.7,1.7l-140.8,81.3c-6.117,3.546-8.201,11.378-4.655,17.495
		c1.119,1.931,2.724,3.536,4.655,4.655l43.425,25.075L108.8,193.707c-6.123,3.534-8.223,11.362-4.689,17.486
		c1.124,1.948,2.741,3.565,4.689,4.689l43.425,25.05L108.8,266.007c-6.123,3.534-8.223,11.362-4.689,17.486
		c1.124,1.948,2.741,3.565,4.689,4.689l140.8,81.3c3.96,2.286,8.84,2.286,12.8,0l140.8-81.3c6.123-3.534,8.223-11.363,4.689-17.486
		c-1.124-1.948-2.741-3.565-4.689-4.689l-43.425-25.075l43.425-25.05c6.123-3.534,8.223-11.362,4.689-17.486
		c-1.124-1.948-2.741-3.565-4.689-4.689l-43.425-25.075l43.425-25.075c6.117-3.546,8.201-11.378,4.655-17.495
		c-1.119-1.931-2.724-3.536-4.655-4.655l-140.8-81.3C260.541,39.039,258.444,38.454,256.3,38.407L256.3,38.407z M256.001,65.982
		l115.225,66.5l-115.225,66.525l-115.225-66.525L256.001,65.982z M177.851,183.432l71.75,41.425c3.96,2.286,8.84,2.286,12.8,0
		l71.75-41.425l37.05,21.375l-115.2,66.5l-115.2-66.5L177.851,183.432z M177.825,255.732l71.775,41.425
		c3.96,2.286,8.84,2.286,12.8,0l71.775-41.425l37.025,21.375l-115.2,66.5l-115.2-66.5L177.825,255.732z"/>
</g>
</svg>
