<?xml version="1.0" encoding="utf-8"?>
<!-- Generator: Adobe Illustrator 17.0.0, SVG Export Plug-In . SVG Version: 6.00 Build 0)  -->
<!DOCTYPE svg PUBLIC "-//W3C//DTD SVG 1.1//EN" "http://www.w3.org/Graphics/SVG/1.1/DTD/svg11.dtd">
<svg version="1.1" id="Слой_1" xmlns="http://www.w3.org/2000/svg" xmlns:xlink="http://www.w3.org/1999/xlink" x="0px" y="0px"
	 width="340.2px" height="394.063px" viewBox="85.898 7.373 340.2 394.063" enable-background="new 85.898 7.373 340.2 394.063"
	 xml:space="preserve">
<title>03</title>
<g>
	<path d="M405.914,289.178c-10.688-21.808-16.29-45.756-16.384-70.042v-43.008c-0.238-61.72-42.745-115.235-102.81-129.434h-14.336
		V7.373h-32.768v38.502H225.28c-60.874,13.553-103.935,67.892-103.219,130.253v43.008c-0.094,24.286-5.696,48.234-16.384,70.042
		l-18.022,37.683c-4.072,8.081-0.823,17.932,7.258,22.004c2.322,1.17,4.888,1.771,7.488,1.752h90.522
		c7.457,34.724,41.652,56.828,76.376,49.371c24.736-5.312,44.059-24.635,49.371-49.371H409.6
		c9.048,0.063,16.435-7.221,16.498-16.269c0.018-2.6-0.583-5.166-1.752-7.488L405.914,289.178z M256,369.459
		c-12.534-0.149-23.789-7.707-28.672-19.251h57.344C279.789,361.752,268.534,369.31,256,369.459z M128.614,317.44l6.963-13.926
		c12.839-26.281,19.561-55.128,19.661-84.378v-43.008c-0.384-46.129,30.979-86.476,75.776-97.485h49.971
		c44.96,10.848,76.524,51.236,76.186,97.485v43.008c0.1,29.249,6.822,58.096,19.661,84.378l6.963,13.926H128.614z"/>
</g>
</svg>
