<svg width="20" height="21" viewBox="0 0 20 21" fill="none" xmlns="http://www.w3.org/2000/svg">
<path d="M18.5 18V16.3333C18.5 15.4493 18.1488 14.6014 17.5237 13.9763C16.8986 13.3512 16.0507 13 15.1667 13H9.33333C8.44928 13 7.60143 13.3512 6.97631 13.9763C6.35119 14.6014 6 15.4493 6 16.3333V18" stroke="#444444" stroke-linecap="round" stroke-linejoin="round"/>
<path d="M12.2498 9.66667C14.0908 9.66667 15.5832 8.17428 15.5832 6.33333C15.5832 4.49238 14.0908 3 12.2498 3C10.4089 3 8.9165 4.49238 8.9165 6.33333C8.9165 8.17428 10.4089 9.66667 12.2498 9.66667Z" stroke="#444444" stroke-linecap="round" stroke-linejoin="round"/>
<path d="M4.5 7V12" stroke="#444444" stroke-linecap="round" stroke-linejoin="round"/>
<path d="M7 9.5H2" stroke="#444444" stroke-linecap="round" stroke-linejoin="round"/>
</svg>
