<svg width="20" height="21" viewBox="0 0 20 21" fill="none" xmlns="http://www.w3.org/2000/svg">
<g id="copy">
<path id="Vector" d="M16.6667 8H9.16667C8.24619 8 7.5 8.74619 7.5 9.66667V17.1667C7.5 18.0871 8.24619 18.8333 9.16667 18.8333H16.6667C17.5871 18.8333 18.3333 18.0871 18.3333 17.1667V9.66667C18.3333 8.74619 17.5871 8 16.6667 8Z" stroke="#444444" stroke-linecap="round" stroke-linejoin="round"/>
<path id="Vector_2" d="M4.16669 13H3.33335C2.89133 13 2.4674 12.8244 2.15484 12.5118C1.84228 12.1993 1.66669 11.7754 1.66669 11.3333V3.83332C1.66669 3.3913 1.84228 2.96737 2.15484 2.65481C2.4674 2.34225 2.89133 2.16666 3.33335 2.16666H10.8334C11.2754 2.16666 11.6993 2.34225 12.0119 2.65481C12.3244 2.96737 12.5 3.3913 12.5 3.83332V4.66666" stroke="#444444" stroke-linecap="round" stroke-linejoin="round"/>
</g>
</svg>
