<svg width="20" height="21" viewBox="0 0 20 21" fill="none" xmlns="http://www.w3.org/2000/svg">
<g id="copy">
<path id="Vector" d="M7.5 10.5V9.66667C7.5 8.74619 8.24619 8 9.16667 8H16.6667C17.5871 8 18.3333 8.74619 18.3333 9.66667V17.1667C18.3333 18.0871 17.5871 18.8333 16.6667 18.8333H9.16667C8.24619 18.8333 7.5 18.0871 7.5 17.1667V15.5" stroke="#444444" stroke-linecap="round" stroke-linejoin="round"/>
<path id="Vector_2" d="M9.99994 12.9999L3.33335 13C2.89133 13 2.4674 12.8244 2.15484 12.5118C1.84228 12.1993 1.66669 11.7754 1.66669 11.3333V3.83332C1.66669 3.3913 1.84228 2.96737 2.15484 2.65481C2.4674 2.34225 2.89133 2.16666 3.33335 2.16666H10.8334C11.2754 2.16666 11.6993 2.34225 12.0119 2.65481C12.3244 2.96737 12.5 3.3913 12.5 3.83332V4.66666" stroke="#444444" stroke-linecap="round" stroke-linejoin="round"/>
<path id="Polygon 30" d="M12.6404 12.7797C12.766 12.8984 12.7657 13.0984 12.6396 13.2166L10.5065 15.2168C10.3147 15.3967 10.0008 15.2604 10.0013 14.9974L10.0089 10.9889C10.0094 10.726 10.3238 10.5909 10.5149 10.7714L12.6404 12.7797Z" fill="#444444"/>
</g>
</svg>
