<svg width="20" height="21" viewBox="0 0 20 21" fill="none" xmlns="http://www.w3.org/2000/svg">
<path d="M10 18.8334C14.6024 18.8334 18.3334 15.1024 18.3334 10.5C18.3334 5.89765 14.6024 2.16669 10 2.16669C5.39765 2.16669 1.66669 5.89765 1.66669 10.5C1.66669 15.1024 5.39765 18.8334 10 18.8334Z" stroke="#444444" stroke-linecap="round" stroke-linejoin="round"/>
<path d="M10.73 5.242L10.576 12.242H9.512L9.358 5.242H10.73ZM10.1 15.084C9.85733 15.084 9.652 15 9.484 14.832C9.316 14.664 9.232 14.4587 9.232 14.216C9.232 13.9733 9.316 13.768 9.484 13.6C9.652 13.432 9.85733 13.348 10.1 13.348C10.3333 13.348 10.5293 13.432 10.688 13.6C10.856 13.768 10.94 13.9733 10.94 14.216C10.94 14.4587 10.856 14.664 10.688 14.832C10.5293 15 10.3333 15.084 10.1 15.084Z" fill="#444444"/>
</svg>
