<svg width="20" height="21" viewBox="0 0 20 21" fill="none" xmlns="http://www.w3.org/2000/svg">
<g id="trash">
<path id="Vector" d="M2.5 5.5H4.16667H17.5" stroke="#FD5162" stroke-linecap="round" stroke-linejoin="round"/>
<path id="Vector_2" d="M15.8334 5.50001V17.1667C15.8334 17.6087 15.6578 18.0326 15.3452 18.3452C15.0326 18.6577 14.6087 18.8333 14.1667 18.8333H5.83335C5.39133 18.8333 4.9674 18.6577 4.65484 18.3452C4.34228 18.0326 4.16669 17.6087 4.16669 17.1667V5.50001M6.66669 5.50001V3.83334C6.66669 3.39131 6.84228 2.96739 7.15484 2.65483C7.4674 2.34227 7.89133 2.16667 8.33335 2.16667H11.6667C12.1087 2.16667 12.5326 2.34227 12.8452 2.65483C13.1578 2.96739 13.3334 3.39131 13.3334 3.83334V5.50001" stroke="#FD5162" stroke-linecap="round" stroke-linejoin="round"/>
</g>
</svg>
