<svg width="16" height="16" viewBox="0 0 16 16" fill="none" xmlns="http://www.w3.org/2000/svg">
<g id="paperclip" clip-path="url(#clip0_137_20624)">
<path id="Vector" d="M13.8999 7.40608L8.15619 13.1498C7.45253 13.8535 6.49818 14.2488 5.50306 14.2488C4.50795 14.2488 3.55359 13.8535 2.84994 13.1498C2.14628 12.4462 1.75098 11.4918 1.75098 10.4967C1.75098 9.50159 2.14628 8.54723 2.84994 7.84358L8.59369 2.09983C9.06279 1.63073 9.69903 1.36719 10.3624 1.36719C11.0258 1.36719 11.6621 1.63073 12.1312 2.09983C12.6003 2.56893 12.8638 3.20517 12.8638 3.86858C12.8638 4.53199 12.6003 5.16823 12.1312 5.63733L6.38119 11.3811C6.14664 11.6156 5.82852 11.7474 5.49681 11.7474C5.16511 11.7474 4.84699 11.6156 4.61244 11.3811C4.37789 11.1465 4.24612 10.8284 4.24612 10.4967C4.24612 10.165 4.37789 9.84688 4.61244 9.61233L9.91869 4.31233" stroke="#414141" stroke-linecap="round" stroke-linejoin="round"/>
</g>
<defs>
<clipPath id="clip0_137_20624">
<rect width="15" height="15" fill="white" transform="translate(0.5 0.5)"/>
</clipPath>
</defs>
</svg>
