<svg width="26" height="21" viewBox="0 0 26 21" fill="none" xmlns="http://www.w3.org/2000/svg">
<path d="M4.6767 20.2259V18.9276C4.6767 18.4296 4.37366 18.1052 3.87626 18.1052C3.61502 18.1052 3.33549 18.1919 3.14061 18.4709C2.98909 18.2327 2.77487 18.1052 2.44832 18.1052C2.32691 18.0999 2.20609 18.1249 2.09668 18.1778C1.98726 18.2306 1.89266 18.3098 1.82135 18.4082V18.147H1.41016V20.2244H1.82135V19.0357C1.82135 18.67 2.03765 18.495 2.34069 18.495C2.64373 18.495 2.81667 18.6898 2.81667 19.0357V20.2259H3.22786V19.0357C3.22786 18.67 3.44417 18.495 3.74721 18.495C4.05025 18.495 4.22319 18.6898 4.22319 19.0357V20.2259H4.6767ZM11.4282 18.17H10.6706V17.543H10.2604V18.17H9.82783V18.5357H10.2604V19.5117C10.2604 19.9877 10.4334 20.2693 10.9527 20.2693C11.1495 20.2652 11.3423 20.2132 11.5144 20.1178L11.3843 19.752C11.2676 19.825 11.1322 19.8626 10.9945 19.8602C10.7782 19.8602 10.6701 19.7301 10.6701 19.5138V18.519H11.4277V18.1726L11.4282 18.17ZM15.2799 18.1052C15.1679 18.1027 15.0572 18.1293 14.9585 18.1824C14.8599 18.2355 14.7768 18.3133 14.7172 18.4082V18.147H14.306V20.2244H14.7172V19.0577C14.7172 18.7113 14.8901 18.495 15.1718 18.495C15.2668 18.4988 15.3611 18.5134 15.4529 18.5383L15.5829 18.1486C15.4837 18.1235 15.3822 18.109 15.2799 18.1052ZM9.45896 18.3215C9.24265 18.17 8.93962 18.1052 8.61516 18.1052C8.09581 18.1052 7.77135 18.3434 7.77135 18.7546C7.77135 19.101 8.0096 19.2954 8.46363 19.3607L8.67994 19.3821C8.91819 19.4255 9.06971 19.5122 9.06971 19.6204C9.06971 19.7719 8.89677 19.8816 8.57179 19.8816C8.32364 19.8867 8.0806 19.8108 7.8795 19.6653L7.6632 19.9898C7.96623 20.2061 8.33406 20.251 8.55141 20.251C9.15749 20.251 9.48195 19.9699 9.48195 19.5801C9.48195 19.2144 9.22071 19.0394 8.76772 18.9741L8.55141 18.9527C8.35653 18.9312 8.18568 18.8659 8.18568 18.7363C8.18568 18.5848 8.35862 18.4751 8.59687 18.4751C8.85811 18.4751 9.11621 18.5833 9.24631 18.648L9.45896 18.3215ZM15.7345 19.1872C15.7345 19.8142 16.1457 20.2693 16.8165 20.2693C17.1196 20.2693 17.3359 20.2045 17.5522 20.031L17.3359 19.7066C17.1827 19.8306 16.9922 19.8993 16.7951 19.9015C16.4294 19.9015 16.1457 19.6204 16.1457 19.2092C16.1457 18.798 16.4257 18.519 16.7951 18.519C16.9922 18.5212 17.1827 18.5898 17.3359 18.7139L17.5522 18.3894C17.3359 18.2165 17.1196 18.1512 16.8165 18.1512C16.1671 18.1078 15.7345 18.5624 15.7345 19.1899V19.1872ZM12.8347 18.1052C12.2286 18.1052 11.8174 18.5378 11.8174 19.1872C11.8174 19.8367 12.25 20.2693 12.8775 20.2693C13.1828 20.2757 13.4809 20.1764 13.7214 19.9882L13.505 19.6852C13.3312 19.8199 13.1189 19.8957 12.899 19.9015C12.6179 19.9015 12.3148 19.7285 12.272 19.3607H13.8086V19.1878C13.8086 18.5383 13.4188 18.1057 12.8347 18.1057V18.1052ZM12.8133 18.495C13.1163 18.495 13.3326 18.6898 13.354 19.0143H12.2291C12.2939 18.7113 12.4904 18.495 12.8133 18.495ZM7.20864 19.1872V18.1486H6.79745V18.4098C6.64593 18.2149 6.43171 18.1068 6.12658 18.1068C5.54245 18.1068 5.10931 18.5613 5.10931 19.1888C5.10931 19.8163 5.54193 20.2709 6.12658 20.2709C6.42962 20.2709 6.64593 20.1627 6.79745 19.9678V20.2291H7.20864V19.1872ZM5.54245 19.1872C5.54245 18.7975 5.7807 18.495 6.19189 18.495C6.58166 18.495 6.81887 18.798 6.81887 19.1872C6.81887 19.5984 6.55763 19.8795 6.19189 19.8795C5.7807 19.901 5.54245 19.5765 5.54245 19.1872ZM21.5345 18.1052C21.4225 18.1027 21.3118 18.1293 21.2132 18.1824C21.1145 18.2355 21.0314 18.3133 20.9718 18.4082V18.147H20.5606V20.2244H20.9713V19.0577C20.9713 18.7113 21.1442 18.495 21.4258 18.495C21.5209 18.4988 21.6152 18.5134 21.7069 18.5383L21.837 18.1486C21.7378 18.1235 21.6362 18.109 21.534 18.1052H21.5345ZM19.9331 19.1872V18.1486H19.5219V18.4098C19.3704 18.2149 19.1562 18.1068 18.8511 18.1068C18.2669 18.1068 17.8338 18.5613 17.8338 19.1888C17.8338 19.8163 18.2664 20.2709 18.8511 20.2709C19.1541 20.2709 19.3704 20.1627 19.5219 19.9678V20.2291H19.9331V19.1872ZM18.2669 19.1872C18.2669 18.7975 18.5052 18.495 18.9164 18.495C19.3061 18.495 19.5433 18.798 19.5433 19.1872C19.5433 19.5984 19.2821 19.8795 18.9164 19.8795C18.5052 19.901 18.2669 19.5765 18.2669 19.1872ZM24.1098 19.1872V17.3262H23.6986V18.4082C23.5471 18.2133 23.3329 18.1052 23.0278 18.1052C22.4436 18.1052 22.0105 18.5597 22.0105 19.1872C22.0105 19.8147 22.4431 20.2693 23.0278 20.2693C23.3308 20.2693 23.5471 20.1611 23.6986 19.9663V20.2275H24.1098V19.1872ZM22.4436 19.1872C22.4436 18.7975 22.6819 18.495 23.0931 18.495C23.4828 18.495 23.72 18.798 23.72 19.1872C23.72 19.5984 23.4588 19.8795 23.0931 19.8795C22.6814 19.9015 22.4431 19.577 22.4431 19.1872H22.4436Z" fill="black"/>
<path d="M8.98047 2.39453H16.4896V14.6425H8.98047V2.39453Z" fill="#FF5F00"/>
<path d="M9.74212 8.5187C9.74238 7.34043 10.0092 6.1775 10.5226 5.11696C11.036 4.05643 11.7826 3.12578 12.7067 2.39471C11.5575 1.49119 10.1773 0.92924 8.72387 0.773091C7.27042 0.616942 5.80236 0.872897 4.4875 1.5117C3.17265 2.1505 2.06406 3.14637 1.28846 4.38546C0.512869 5.62456 0.101562 7.05688 0.101562 8.5187C0.101562 9.98051 0.512869 11.4128 1.28846 12.6519C2.06406 13.891 3.17265 14.8869 4.4875 15.5257C5.80236 16.1645 7.27042 16.4204 8.72387 16.2643C10.1773 16.1082 11.5575 15.5462 12.7067 14.6427C11.7826 13.9116 11.036 12.981 10.5226 11.9204C10.0092 10.8599 9.74238 9.69696 9.74212 8.5187Z" fill="#EB001B"/>
<path d="M25.3222 8.51943C25.3233 9.98018 24.9132 11.4117 24.1389 12.6504C23.3646 13.889 22.2573 14.8847 20.9436 15.5236C19.63 16.1625 18.1631 16.4188 16.7106 16.2631C15.2582 16.1074 13.8789 15.5461 12.7305 14.6434C13.6547 13.9125 14.4015 12.9819 14.915 11.9214C15.4284 10.8608 15.6951 9.69774 15.6951 8.51943C15.6951 7.34111 15.4284 6.17808 14.915 5.11751C14.4015 4.05693 13.6547 3.12633 12.7305 2.39544C13.8789 1.49271 15.2582 0.931412 16.7106 0.775758C18.1631 0.620104 19.63 0.876373 20.9436 1.51526C22.2573 2.15414 23.3646 3.14984 24.1389 4.38848C24.9132 5.62711 25.3233 7.05868 25.3222 8.51943Z" fill="#F79E1B"/>
</svg>
