<svg width="34" height="11" viewBox="0 0 34 11" fill="none" xmlns="http://www.w3.org/2000/svg">
<path d="M12.1305 10.353L13.7703 0.729931H16.3933L14.7522 10.353H12.1305ZM24.2286 0.937375C23.7091 0.742417 22.8947 0.533203 21.8779 0.533203C19.286 0.533203 17.4604 1.83838 17.4448 3.70897C17.4302 5.09172 18.7482 5.86314 19.7431 6.3234C20.7642 6.79522 21.1073 7.09596 21.1024 7.51709C21.0959 8.16219 20.2871 8.45674 19.5331 8.45674C18.4834 8.45674 17.9256 8.31089 17.0642 7.95174L16.7261 7.79881L16.358 9.95299C16.9707 10.2217 18.1035 10.4543 19.2799 10.4664C22.0371 10.4664 23.827 9.17616 23.8474 7.17855C23.8571 6.08381 23.1584 5.25084 21.6451 4.56396C20.7283 4.11879 20.1668 3.82173 20.1727 3.37096C20.1727 2.97097 20.648 2.54325 21.675 2.54325C22.5326 2.52993 23.154 2.71697 23.6381 2.91193L23.8732 3.02298L24.2286 0.937375ZM30.9784 0.729783H28.9517C28.3238 0.729783 27.8539 0.901146 27.5782 1.5278L23.6827 10.3466H26.4371C26.4371 10.3466 26.8873 9.16092 26.9892 8.90053C27.2901 8.90053 29.9659 8.90466 30.3484 8.90466C30.4268 9.24158 30.6675 10.3466 30.6675 10.3466H33.1014L30.9784 0.729488V0.729783ZM27.7627 6.94377C27.9797 6.38933 28.8078 4.25368 28.8078 4.25368C28.7924 4.27929 29.0231 3.69653 29.1555 3.33522L29.3328 4.1649C29.3328 4.1649 29.835 6.46198 29.94 6.94362H27.7627V6.94377ZM9.90382 0.729783L7.33588 7.2923L7.06232 5.95871C6.58422 4.42136 5.0948 2.75576 3.42969 1.9219L5.77779 10.3376L8.55297 10.3346L12.6824 0.729685L9.90382 0.729636" fill="#0E4595"/>
<path d="M4.93886 0.729492H0.709307L0.675781 0.92971C3.96633 1.72626 6.14356 3.65121 7.04756 5.96441L6.12788 1.54221C5.96915 0.932856 5.50864 0.750973 4.93896 0.729737" fill="#F2AE14"/>
</svg>
