<svg width="32" height="32" viewBox="0 0 32 32" fill="none" xmlns="http://www.w3.org/2000/svg">
<rect width="32" height="32" rx="16" fill="#B62F16"/>
<path d="M11.6487 10.965C12.6107 10.965 13.4513 11.1513 14.1707 11.524C14.8987 11.888 15.4577 12.4167 15.8477 13.11C16.2463 13.7947 16.4457 14.5963 16.4457 15.515C16.4457 16.4337 16.2463 17.231 15.8477 17.907C15.4577 18.583 14.8987 19.103 14.1707 19.467C13.4513 19.8223 12.6107 20 11.6487 20H8.69766V10.965H11.6487ZM11.6487 18.791C12.706 18.791 13.5163 18.505 14.0797 17.933C14.643 17.361 14.9247 16.555 14.9247 15.515C14.9247 14.4663 14.643 13.6473 14.0797 13.058C13.5163 12.4687 12.706 12.174 11.6487 12.174H10.1797V18.791H11.6487ZM22.8415 10.965V17.478C22.8415 18.284 22.5945 18.921 22.1005 19.389C21.6151 19.857 20.9738 20.091 20.1765 20.091C19.3791 20.091 18.7335 19.857 18.2395 19.389C17.7541 18.921 17.5115 18.284 17.5115 17.478H19.0065C19.0151 17.8767 19.1148 18.193 19.3055 18.427C19.5048 18.661 19.7951 18.778 20.1765 18.778C20.5578 18.778 20.8481 18.661 21.0475 18.427C21.2468 18.1843 21.3465 17.868 21.3465 17.478V10.965H22.8415Z" fill="white"/>
</svg>
