<svg width="26" height="20" viewBox="0 0 26 20" fill="none" xmlns="http://www.w3.org/2000/svg">
<path d="M9.291 13.555H3.515L2.451 16.5H0.627L5.415 3.333H7.41L12.179 16.5H10.355L9.291 13.555ZM8.797 12.149L6.403 5.461L4.009 12.149H8.797ZM13.6197 11.256C13.6197 10.192 13.8351 9.261 14.2657 8.463C14.6964 7.65233 15.2854 7.02533 16.0327 6.582C16.7927 6.13867 17.6351 5.917 18.5597 5.917C19.4717 5.917 20.2634 6.11333 20.9347 6.506C21.6061 6.89867 22.1064 7.39267 22.4357 7.988V6.088H24.1837V16.5H22.4357V14.562C22.0937 15.17 21.5807 15.6767 20.8967 16.082C20.2254 16.4747 19.4401 16.671 18.5407 16.671C17.6161 16.671 16.7801 16.443 16.0327 15.987C15.2854 15.531 14.6964 14.8913 14.2657 14.068C13.8351 13.2447 13.6197 12.3073 13.6197 11.256ZM22.4357 11.275C22.4357 10.4897 22.2774 9.80567 21.9607 9.223C21.6441 8.64033 21.2134 8.197 20.6687 7.893C20.1367 7.57633 19.5477 7.418 18.9017 7.418C18.2557 7.418 17.6667 7.57 17.1347 7.874C16.6027 8.178 16.1784 8.62133 15.8617 9.204C15.5451 9.78667 15.3867 10.4707 15.3867 11.256C15.3867 12.054 15.5451 12.7507 15.8617 13.346C16.1784 13.9287 16.6027 14.3783 17.1347 14.695C17.6667 14.999 18.2557 15.151 18.9017 15.151C19.5477 15.151 20.1367 14.999 20.6687 14.695C21.2134 14.3783 21.6441 13.9287 21.9607 13.346C22.2774 12.7507 22.4357 12.0603 22.4357 11.275Z" fill="#727272"/>
</svg>
