<svg width="20" height="20" viewBox="0 0 20 20" fill="none" xmlns="http://www.w3.org/2000/svg">
<path d="M13.4444 1.5H2.55556C1.69645 1.5 1 2.19645 1 3.05556V13.9444C1 14.8036 1.69645 15.5 2.55556 15.5H13.4444C14.3036 15.5 15 14.8036 15 13.9444V3.05556C15 2.19645 14.3036 1.5 13.4444 1.5Z" stroke="#727272" stroke-width="1.5" stroke-linecap="round" stroke-linejoin="round"/>
<path d="M17.4444 4.5H6.55556C5.69645 4.5 5 5.19645 5 6.05556V16.9444C5 17.8036 5.69645 18.5 6.55556 18.5H17.4444C18.3036 18.5 19 17.8036 19 16.9444V6.05556C19 5.19645 18.3036 4.5 17.4444 4.5Z" fill="#D9E0F8" stroke="#727272" stroke-width="1.5" stroke-linecap="round" stroke-linejoin="round"/>
<path d="M9 9.5C9.55228 9.5 10 9.05228 10 8.5C10 7.94772 9.55228 7.5 9 7.5C8.44772 7.5 8 7.94772 8 8.5C8 9.05228 8.44772 9.5 9 9.5Z" fill="#D9E0F8" stroke="#727272" stroke-width="1.5" stroke-linecap="round" stroke-linejoin="round"/>
<path d="M19 13.5909L15.25 9.5L7 18.5" fill="#D9E0F8"/>
<path d="M19 13.5909L15.25 9.5L7 18.5" stroke="#727272" stroke-width="1.5" stroke-linecap="round" stroke-linejoin="round"/>
</svg>
