<svg width="17" height="18" viewBox="0 0 17 18" fill="none" xmlns="http://www.w3.org/2000/svg">
<path d="M0.75 2.59961C0.75 1.90925 1.30964 1.34961 2 1.34961H6C6.69036 1.34961 7.25 1.90925 7.25 2.59961V6.59961C7.25 7.28997 6.69036 7.84961 6 7.84961H2C1.30964 7.84961 0.75 7.28997 0.75 6.59961V2.59961Z" stroke="#727272" stroke-width="1.5"/>
<path d="M9.75 2.59961C9.75 1.90925 10.3096 1.34961 11 1.34961H15C15.6904 1.34961 16.25 1.90925 16.25 2.59961V6.59961C16.25 7.28997 15.6904 7.84961 15 7.84961H11C10.3096 7.84961 9.75 7.28997 9.75 6.59961V2.59961Z" stroke="#727272" stroke-width="1.5"/>
<path d="M0.75 11.3994C0.75 10.7091 1.30964 10.1494 2 10.1494H6C6.69036 10.1494 7.25 10.7091 7.25 11.3994V15.3994C7.25 16.0898 6.69036 16.6494 6 16.6494H2C1.30964 16.6494 0.75 16.0898 0.75 15.3994V11.3994Z" stroke="#727272" stroke-width="1.5"/>
<path d="M9.75 11.3994C9.75 10.7091 10.3096 10.1494 11 10.1494H15C15.6904 10.1494 16.25 10.7091 16.25 11.3994V15.3994C16.25 16.0898 15.6904 16.6494 15 16.6494H11C10.3096 16.6494 9.75 16.0898 9.75 15.3994V11.3994Z" stroke="#727272" stroke-width="1.5"/>
</svg>
