<svg width="136" height="135" viewBox="0 0 136 135" fill="none" xmlns="http://www.w3.org/2000/svg">
<path d="M107.375 61.875H28.625C22.4118 61.875 17.375 66.9118 17.375 73.125V112.5C17.375 118.713 22.4118 123.75 28.625 123.75H107.375C113.588 123.75 118.625 118.713 118.625 112.5V73.125C118.625 66.9118 113.588 61.875 107.375 61.875Z" fill="#B6B6B6" stroke="#B6B6B6" stroke-width="1.5" stroke-linecap="round" stroke-linejoin="round"/>
<path d="M39.875 61.875V39.375C39.875 31.9158 42.8382 24.7621 48.1126 19.4876C53.3871 14.2132 60.5408 11.25 68 11.25C75.4592 11.25 82.6129 14.2132 87.8874 19.4876C93.1618 24.7621 96.125 31.9158 96.125 39.375V61.875" stroke="#B6B6B6" stroke-width="10" stroke-linecap="round" stroke-linejoin="round"/>
</svg>
