<svg width="14" height="14" viewBox="0 0 14 14" fill="none" xmlns="http://www.w3.org/2000/svg">
<path d="M10.2222 6.33398H4.77778C4.34822 6.33398 4 6.71386 4 7.18247V10.1522C4 10.6208 4.34822 11.0007 4.77778 11.0007H10.2222C10.6518 11.0007 11 10.6208 11 10.1522V7.18247C11 6.71386 10.6518 6.33398 10.2222 6.33398Z" fill="#777777" stroke="#777777" stroke-width="1.5" stroke-linecap="round" stroke-linejoin="round"/>
<path d="M5.16602 6.33366V4.25958C5.16602 3.57199 5.41185 2.91255 5.84943 2.42634C6.28702 1.94014 6.88051 1.66699 7.49935 1.66699C8.11819 1.66699 8.71168 1.94014 9.14926 2.42634C9.58685 2.91255 9.83268 3.57199 9.83268 4.25958V6.33366" stroke="#777777" stroke-linecap="round" stroke-linejoin="round"/>
</svg>
