<svg width="16" height="17" viewBox="0 0 16 17" fill="none" xmlns="http://www.w3.org/2000/svg">
<g id="folder-plus">
<path id="Vector" d="M14.6663 13.1667C14.6663 13.5203 14.5259 13.8594 14.2758 14.1095C14.0258 14.3595 13.6866 14.5 13.333 14.5H2.66634C2.31272 14.5 1.97358 14.3595 1.72353 14.1095C1.47348 13.8594 1.33301 13.5203 1.33301 13.1667V3.83333C1.33301 3.47971 1.47348 3.14057 1.72353 2.89052C1.97358 2.64048 2.31272 2.5 2.66634 2.5H5.99967L7.33301 4.5H13.333C13.6866 4.5 14.0258 4.64048 14.2758 4.89052C14.5259 5.14057 14.6663 5.47971 14.6663 5.83333V13.1667Z" stroke="#414141" stroke-linecap="round" stroke-linejoin="round"/>
<path id="Vector_2" d="M8 7.8335V11.8335" stroke="#414141" stroke-linecap="round" stroke-linejoin="round"/>
<path id="Vector_3" d="M6 9.8335H10" stroke="#414141" stroke-linecap="round" stroke-linejoin="round"/>
</g>
</svg>
