<svg width="17" height="18" viewBox="0 0 17 18" fill="none" xmlns="http://www.w3.org/2000/svg">
<path d="M0.5 2.6001C0.5 1.77167 1.17157 1.1001 2 1.1001H6C6.82843 1.1001 7.5 1.77167 7.5 2.6001V6.6001C7.5 7.42852 6.82843 8.1001 6 8.1001H2C1.17157 8.1001 0.5 7.42852 0.5 6.6001V2.6001Z" stroke="#727272"/>
<path d="M9.5 2.6001C9.5 1.77167 10.1716 1.1001 11 1.1001H15C15.8284 1.1001 16.5 1.77167 16.5 2.6001V6.6001C16.5 7.42852 15.8284 8.1001 15 8.1001H11C10.1716 8.1001 9.5 7.42852 9.5 6.6001V2.6001Z" stroke="#727272"/>
<path d="M0.5 11.3999C0.5 10.5715 1.17157 9.8999 2 9.8999H6C6.82843 9.8999 7.5 10.5715 7.5 11.3999V15.3999C7.5 16.2283 6.82843 16.8999 6 16.8999H2C1.17157 16.8999 0.5 16.2283 0.5 15.3999V11.3999Z" stroke="#727272"/>
<path d="M9.5 11.3999C9.5 10.5715 10.1716 9.8999 11 9.8999H15C15.8284 9.8999 16.5 10.5715 16.5 11.3999V15.3999C16.5 16.2283 15.8284 16.8999 15 16.8999H11C10.1716 16.8999 9.5 16.2283 9.5 15.3999V11.3999Z" stroke="#727272"/>
</svg>
