<svg width="16" height="16" viewBox="0 0 16 16" fill="none" xmlns="http://www.w3.org/2000/svg">
<g id="star">
<path id="Vector" d="M7.55132 2.24181C7.73474 1.87023 8.26461 1.87023 8.44803 2.24181L9.94345 5.27138C10.0162 5.4188 10.1568 5.52103 10.3195 5.54481L13.6644 6.03372C14.0744 6.09364 14.2378 6.59756 13.941 6.88664L11.5214 9.24333C11.4035 9.3582 11.3496 9.52377 11.3775 9.68603L11.9484 13.0148C12.0184 13.4233 11.5897 13.7348 11.2229 13.5419L8.2324 11.9692C8.08671 11.8926 7.91264 11.8926 7.76695 11.9692L4.77649 13.5419C4.40968 13.7348 3.9809 13.4233 4.05096 13.0148L4.62188 9.68603C4.64971 9.52377 4.59588 9.3582 4.47795 9.24333L2.05835 6.88664C1.76155 6.59756 1.92494 6.09364 2.3349 6.03372L5.67986 5.54481C5.84253 5.52103 5.98313 5.4188 6.0559 5.27137L7.55132 2.24181Z" stroke="#414141" stroke-linecap="round" stroke-linejoin="round"/>
</g>
</svg>
