<?xml version="1.0" encoding="utf-8"?>
<!-- Generator: Adobe Illustrator 17.0.0, SVG Export Plug-In . SVG Version: 6.00 Build 0)  -->
<!DOCTYPE svg PUBLIC "-//W3C//DTD SVG 1.1//EN" "http://www.w3.org/Graphics/SVG/1.1/DTD/svg11.dtd">
<svg version="1.1" id="Слой_1" xmlns="http://www.w3.org/2000/svg" xmlns:xlink="http://www.w3.org/1999/xlink" x="0px" y="0px"
	 width="241.304px" height="241.304px" viewBox="136.711 85.511 241.304 241.304"
	 enable-background="new 136.711 85.511 241.304 241.304" xml:space="preserve">
<title>Cancel</title>
<desc>Created with Sketch.</desc>
<g>
	<g transform="translate(-641.000000, -146.000000)">
		<path d="M898.363,378.493l-88.815,88.815c-7.288,7.288-19.109,7.32-26.379,0.049c-7.322-7.322-7.249-19.081,0.049-26.379
			l88.815-88.815l-88.815-88.815c-7.287-7.288-7.32-19.108-0.049-26.379c7.322-7.322,19.081-7.249,26.379,0.049l88.815,88.815
			l88.815-88.815c7.288-7.288,19.108-7.32,26.379-0.049c7.322,7.322,7.249,19.081-0.049,26.379l-88.815,88.815l88.815,88.815
			c7.287,7.288,7.32,19.108,0.049,26.379c-7.322,7.322-19.081,7.249-26.379-0.049L898.363,378.493L898.363,378.493z"/>
	</g>
</g>
</svg>
