<?xml version="1.0" encoding="utf-8"?>
<!-- Generator: Adobe Illustrator 17.0.0, SVG Export Plug-In . SVG Version: 6.00 Build 0)  -->
<!DOCTYPE svg PUBLIC "-//W3C//DTD SVG 1.1//EN" "http://www.w3.org/Graphics/SVG/1.1/DTD/svg11.dtd">
<svg version="1.1" id="Слой_1" xmlns="http://www.w3.org/2000/svg" xmlns:xlink="http://www.w3.org/1999/xlink" x="0px" y="0px"
	 width="410.285px" height="409.258px" viewBox="51.2 0.342 410.285 409.258" enable-background="new 51.2 0.342 410.285 409.258"
	 xml:space="preserve">
<g>
	<path fill="#FFFFFF" d="M447.101,46.577l-32.878-32.878c-19.179-17.809-49.316-17.809-68.495,0L79.968,279.46L51.2,409.6
		l130.14-28.768l265.761-265.761C466.28,97.263,466.28,65.755,447.101,46.577z M411.484,112.332l-63.015-63.015l16.439-16.439
		c8.219-6.849,21.918-6.849,30.138,0l32.878,32.878c8.219,8.219,8.219,21.918,0,30.138L411.484,112.332z M329.29,68.495
		l63.015,63.015L174.491,349.324l-61.645-63.015L329.29,68.495z M147.093,360.284l-60.276,13.699l13.699-60.276L147.093,360.284z"/>
</g>
</svg>
