<svg width="20" height="21" viewBox="0 0 20 21" fill="none" xmlns="http://www.w3.org/2000/svg">
<g id="more-horizontal">
<path id="Vector" d="M10 11.3334C10.4603 11.3334 10.8334 10.9603 10.8334 10.5001C10.8334 10.0398 10.4603 9.66675 10 9.66675C9.53978 9.66675 9.16669 10.0398 9.16669 10.5001C9.16669 10.9603 9.53978 11.3334 10 11.3334Z" stroke="#888888" stroke-width="1.5" stroke-linecap="round" stroke-linejoin="round"/>
<path id="Vector_2" d="M15.8333 11.3334C16.2936 11.3334 16.6667 10.9603 16.6667 10.5001C16.6667 10.0398 16.2936 9.66675 15.8333 9.66675C15.3731 9.66675 15 10.0398 15 10.5001C15 10.9603 15.3731 11.3334 15.8333 11.3334Z" stroke="#888888" stroke-width="1.5" stroke-linecap="round" stroke-linejoin="round"/>
<path id="Vector_3" d="M4.16665 11.3334C4.62688 11.3334 4.99998 10.9603 4.99998 10.5001C4.99998 10.0398 4.62688 9.66675 4.16665 9.66675C3.70641 9.66675 3.33331 10.0398 3.33331 10.5001C3.33331 10.9603 3.70641 11.3334 4.16665 11.3334Z" stroke="#888888" stroke-width="1.5" stroke-linecap="round" stroke-linejoin="round"/>
</g>
</svg>
