<svg width="21" height="20" viewBox="0 0 21 20" fill="none" xmlns="http://www.w3.org/2000/svg">
<path fill-rule="evenodd" clip-rule="evenodd" d="M12.9 2.8C12.9 2.35817 13.2582 2 13.7 2H16.1C16.7365 2 17.347 2.25286 17.7971 2.70294C18.2471 3.15303 18.5 3.76348 18.5 4.4V6.8C18.5 7.24183 18.1418 7.6 17.7 7.6C17.2582 7.6 16.9 7.24183 16.9 6.8V4.4C16.9 4.18783 16.8157 3.98434 16.6657 3.83431C16.5157 3.68429 16.3122 3.6 16.1 3.6H13.7C13.2582 3.6 12.9 3.24183 12.9 2.8ZM3.3 12.4C3.74183 12.4 4.1 12.7582 4.1 13.2V15.6C4.1 15.8122 4.18429 16.0157 4.33431 16.1657C4.48434 16.3157 4.68783 16.4 4.9 16.4H7.3C7.74183 16.4 8.1 16.7582 8.1 17.2C8.1 17.6418 7.74183 18 7.3 18H4.9C4.26348 18 3.65303 17.7471 3.20294 17.2971C2.75286 16.847 2.5 16.2365 2.5 15.6V13.2C2.5 12.7582 2.85817 12.4 3.3 12.4Z" fill="#4382C4"/>
</svg>
