<svg width="19" height="18" viewBox="0 0 19 18" fill="none" xmlns="http://www.w3.org/2000/svg">
<g id="more-horizontal">
<path id="Vector" d="M9.85645 9.75C10.2707 9.75 10.6064 9.41421 10.6064 9C10.6064 8.58579 10.2707 8.25 9.85645 8.25C9.44223 8.25 9.10645 8.58579 9.10645 9C9.10645 9.41421 9.44223 9.75 9.85645 9.75Z" stroke="#B4B4B4" stroke-width="1.5" stroke-linecap="round" stroke-linejoin="round"/>
<path id="Vector_2" d="M15.1064 9.75C15.5207 9.75 15.8564 9.41421 15.8564 9C15.8564 8.58579 15.5207 8.25 15.1064 8.25C14.6922 8.25 14.3564 8.58579 14.3564 9C14.3564 9.41421 14.6922 9.75 15.1064 9.75Z" stroke="#B4B4B4" stroke-width="1.5" stroke-linecap="round" stroke-linejoin="round"/>
<path id="Vector_3" d="M4.60645 9.75C5.02066 9.75 5.35645 9.41421 5.35645 9C5.35645 8.58579 5.02066 8.25 4.60645 8.25C4.19223 8.25 3.85645 8.58579 3.85645 9C3.85645 9.41421 4.19223 9.75 4.60645 9.75Z" stroke="#B4B4B4" stroke-width="1.5" stroke-linecap="round" stroke-linejoin="round"/>
</g>
</svg>
