<svg width="19" height="18" viewBox="0 0 19 18" fill="none" xmlns="http://www.w3.org/2000/svg">
<g id="more-horizontal">
<path id="Vector" d="M9.85742 9.75C10.2716 9.75 10.6074 9.41421 10.6074 9C10.6074 8.58579 10.2716 8.25 9.85742 8.25C9.44321 8.25 9.10742 8.58579 9.10742 9C9.10742 9.41421 9.44321 9.75 9.85742 9.75Z" stroke="#51A3FF" stroke-width="1.5" stroke-linecap="round" stroke-linejoin="round"/>
<path id="Vector_2" d="M15.1074 9.75C15.5216 9.75 15.8574 9.41421 15.8574 9C15.8574 8.58579 15.5216 8.25 15.1074 8.25C14.6932 8.25 14.3574 8.58579 14.3574 9C14.3574 9.41421 14.6932 9.75 15.1074 9.75Z" stroke="#51A3FF" stroke-width="1.5" stroke-linecap="round" stroke-linejoin="round"/>
<path id="Vector_3" d="M4.60742 9.75C5.02164 9.75 5.35742 9.41421 5.35742 9C5.35742 8.58579 5.02164 8.25 4.60742 8.25C4.19321 8.25 3.85742 8.58579 3.85742 9C3.85742 9.41421 4.19321 9.75 4.60742 9.75Z" stroke="#51A3FF" stroke-width="1.5" stroke-linecap="round" stroke-linejoin="round"/>
</g>
</svg>
