<svg width="19" height="18" viewBox="0 0 19 18" fill="none" xmlns="http://www.w3.org/2000/svg">
<g id="trash">
<path id="Vector" d="M3.10645 4.5H4.60645H16.6064" stroke="#B4B4B4" stroke-linecap="round" stroke-linejoin="round"/>
<path id="Vector_2" d="M15.1064 4.5V15C15.1064 15.3978 14.9484 15.7794 14.6671 16.0607C14.3858 16.342 14.0043 16.5 13.6064 16.5H6.10645C5.70862 16.5 5.32709 16.342 5.04579 16.0607C4.76448 15.7794 4.60645 15.3978 4.60645 15V4.5M6.85645 4.5V3C6.85645 2.60218 7.01448 2.22064 7.29579 1.93934C7.57709 1.65804 7.95862 1.5 8.35645 1.5H11.3564C11.7543 1.5 12.1358 1.65804 12.4171 1.93934C12.6984 2.22064 12.8564 2.60218 12.8564 3V4.5" stroke="#B4B4B4" stroke-linecap="round" stroke-linejoin="round"/>
</g>
</svg>
