<svg width="19" height="18" viewBox="0 0 19 18" fill="none" xmlns="http://www.w3.org/2000/svg">
<g id="trash">
<path id="Vector" d="M3.10742 4.5H4.60742H16.6074" stroke="#FD5162" stroke-linecap="round" stroke-linejoin="round"/>
<path id="Vector_2" d="M15.1074 4.5V15C15.1074 15.3978 14.9494 15.7794 14.6681 16.0607C14.3868 16.342 14.0052 16.5 13.6074 16.5H6.10742C5.7096 16.5 5.32807 16.342 5.04676 16.0607C4.76546 15.7794 4.60742 15.3978 4.60742 15V4.5M6.85742 4.5V3C6.85742 2.60218 7.01546 2.22064 7.29676 1.93934C7.57807 1.65804 7.9596 1.5 8.35742 1.5H11.3574C11.7552 1.5 12.1368 1.65804 12.4181 1.93934C12.6994 2.22064 12.8574 2.60218 12.8574 3V4.5" stroke="#FD5162" stroke-linecap="round" stroke-linejoin="round"/>
</g>
</svg>
