<svg width="103" height="97" viewBox="0 0 103 97" fill="none" xmlns="http://www.w3.org/2000/svg">
<path opacity="0.5" d="M13.7695 10.3008H86.2446V77.0899H13.7695V10.3008Z" fill="#4382C4"/>
<path d="M86.3714 10.3008H13.6383C13.1003 10.3008 12.6641 10.737 12.6641 11.275V11.2784C12.6641 11.8165 13.1003 12.2527 13.6383 12.2527H86.3714C86.9095 12.2527 87.3457 11.8165 87.3457 11.2784V11.275C87.3457 10.737 86.9095 10.3008 86.3714 10.3008Z" fill="#4382C4"/>
<path d="M59.4657 12.2502H40.5407C40.2823 12.2502 40.0345 12.1475 39.8518 11.9648C39.669 11.7821 39.5664 11.5343 39.5664 11.2759V8.8114L42.0716 6.30957H57.9483L60.4535 8.8148V11.2759C60.4535 11.405 60.4279 11.5328 60.378 11.6519C60.3282 11.771 60.2553 11.879 60.1633 11.9696C60.0714 12.0603 59.9624 12.1318 59.8427 12.1799C59.7229 12.2281 59.5947 12.2519 59.4657 12.2502Z" fill="#E9F3FF"/>
<path d="M43.707 10.4696C44.2225 10.4696 44.6405 10.0516 44.6405 9.53606C44.6405 9.02049 44.2225 8.60254 43.707 8.60254C43.1914 8.60254 42.7734 9.02049 42.7734 9.53606C42.7734 10.0516 43.1914 10.4696 43.707 10.4696Z" fill="white"/>
<path d="M56.3046 10.4696C56.8202 10.4696 57.2381 10.0516 57.2381 9.53606C57.2381 9.02049 56.8202 8.60254 56.3046 8.60254C55.789 8.60254 55.3711 9.02049 55.3711 9.53606C55.3711 10.0516 55.789 10.4696 56.3046 10.4696Z" fill="white"/>
<path d="M86.3714 75.1328H13.6383C13.1003 75.1328 12.6641 75.569 12.6641 76.1071V76.1105C12.6641 76.6485 13.1003 77.0847 13.6383 77.0847H86.3714C86.9095 77.0847 87.3457 76.6485 87.3457 76.1105V76.1071C87.3457 75.569 86.9095 75.1328 86.3714 75.1328Z" fill="#4382C4"/>
<path d="M77.2487 17.3389H22.7685C22.0205 17.3389 21.4141 17.9453 21.4141 18.6933V68.6859C21.4141 69.4339 22.0205 70.0403 22.7685 70.0403H77.2487C77.9968 70.0403 78.6032 69.4339 78.6032 68.6859V18.6933C78.6032 17.9453 77.9968 17.3389 77.2487 17.3389Z" fill="#E9F3FF"/>
<path d="M35.4939 69.0075C35.4489 69.0075 35.4058 68.9896 35.3739 68.9578C35.3421 68.9259 35.3242 68.8828 35.3242 68.8377V18.0203C35.3242 17.9753 35.3421 17.9321 35.3739 17.9003C35.4058 17.8685 35.4489 17.8506 35.4939 17.8506C35.539 17.8506 35.5821 17.8685 35.614 17.9003C35.6458 17.9321 35.6637 17.9753 35.6637 18.0203V68.8547C35.6595 68.8967 35.6397 68.9357 35.6083 68.9639C35.577 68.9922 35.5362 69.0077 35.4939 69.0075Z" fill="#4382C4"/>
<path d="M50.0057 69.0075C49.9607 69.0075 49.9175 68.9896 49.8857 68.9578C49.8538 68.9259 49.8359 68.8828 49.8359 68.8377V18.0203C49.8359 17.9753 49.8538 17.9321 49.8857 17.9003C49.9175 17.8685 49.9607 17.8506 50.0057 17.8506C50.0507 17.8506 50.0939 17.8685 50.1257 17.9003C50.1575 17.9321 50.1754 17.9753 50.1754 18.0203V68.8547C50.1712 68.8967 50.1515 68.9357 50.1201 68.9639C50.0887 68.9922 50.0479 69.0077 50.0057 69.0075Z" fill="#4382C4"/>
<path d="M64.5174 69.0075C64.4724 69.0075 64.4292 68.9896 64.3974 68.9578C64.3655 68.9259 64.3477 68.8828 64.3477 68.8377V18.0203C64.3477 17.9753 64.3655 17.9321 64.3974 17.9003C64.4292 17.8685 64.4724 17.8506 64.5174 17.8506C64.5624 17.8506 64.6056 17.8685 64.6374 17.9003C64.6692 17.9321 64.6871 17.9753 64.6871 18.0203V68.8547C64.6829 68.8967 64.6632 68.9357 64.6318 68.9639C64.6004 68.9922 64.5596 69.0077 64.5174 69.0075Z" fill="#4382C4"/>
<path d="M80.1033 86.8411C80.0583 86.8479 80.0125 86.8365 79.9759 86.8094C79.9393 86.7824 79.9149 86.7419 79.9081 86.6969C79.9014 86.6519 79.9128 86.606 79.9399 86.5694C79.9669 86.5328 80.0074 86.5084 80.0524 86.5017C80.0524 86.5017 80.2833 86.4304 80.6804 86.2742C80.7015 86.2642 80.7244 86.2587 80.7478 86.2579C80.7711 86.2571 80.7944 86.2612 80.8161 86.2699C80.8378 86.2785 80.8574 86.2915 80.8739 86.3081C80.8903 86.3247 80.9031 86.3445 80.9116 86.3663C80.92 86.388 80.9238 86.4113 80.9228 86.4347C80.9219 86.458 80.9161 86.4809 80.9059 86.5019C80.8956 86.5229 80.8812 86.5415 80.8634 86.5567C80.8457 86.5718 80.825 86.5831 80.8026 86.5899C80.3953 86.7495 80.1644 86.8208 80.1543 86.8242L80.1033 86.8411Z" fill="#4382C4"/>
<path d="M82.3478 85.901C82.3028 85.9109 82.2557 85.9026 82.2169 85.8777C82.1781 85.8529 82.1507 85.8137 82.1408 85.7686C82.1309 85.7236 82.1393 85.6765 82.1641 85.6377C82.1889 85.5989 82.2281 85.5715 82.2732 85.5616C82.7891 85.3138 83.2916 85.0388 83.8177 84.7503C83.8372 84.7379 83.8589 84.7295 83.8817 84.7258C83.9045 84.7221 83.9278 84.7231 83.9502 84.7287C83.9726 84.7343 83.9936 84.7444 84.0119 84.7584C84.0302 84.7724 84.0455 84.79 84.0569 84.8101C84.0682 84.8302 84.0753 84.8524 84.0778 84.8753C84.0802 84.8983 84.078 84.9215 84.0711 84.9435C84.0643 84.9655 84.0531 84.986 84.0381 85.0035C84.0231 85.0211 84.0047 85.0354 83.9841 85.0456C83.4681 85.3375 82.9419 85.6159 82.4191 85.8671C82.3984 85.8839 82.3739 85.8955 82.3478 85.901Z" fill="#4382C4"/>
<path d="M84.8066 84.5504C84.7703 84.5495 84.7352 84.5371 84.7065 84.5149C84.6777 84.4926 84.6569 84.4618 84.647 84.4268C84.6371 84.3919 84.6387 84.3547 84.6516 84.3207C84.6644 84.2867 84.6878 84.2577 84.7183 84.2381C85.1121 83.9936 85.5059 83.7356 85.8895 83.4743C85.9077 83.4602 85.9286 83.4499 85.9509 83.4441C85.9731 83.4383 85.9964 83.4372 86.0192 83.4406C86.0419 83.4441 86.0637 83.4522 86.0833 83.4644C86.1028 83.4766 86.1197 83.4926 86.1328 83.5115C86.146 83.5304 86.1551 83.5518 86.1598 83.5744C86.1644 83.597 86.1643 83.6202 86.1597 83.6428C86.155 83.6653 86.1458 83.6867 86.1326 83.7056C86.1194 83.7245 86.1025 83.7405 86.083 83.7526C85.696 84.0174 85.2988 84.2788 84.8982 84.5266C84.8706 84.5431 84.8388 84.5513 84.8066 84.5504ZM87.4001 82.741C87.365 82.7408 87.3309 82.7298 87.3023 82.7094C87.2738 82.689 87.2523 82.6602 87.2408 82.6271C87.2292 82.594 87.2282 82.5581 87.2379 82.5244C87.2476 82.4907 87.2675 82.4608 87.2948 82.4389C87.7497 82.0791 88.2012 81.7023 88.6323 81.3187C88.649 81.3037 88.6685 81.2923 88.6897 81.2849C88.7109 81.2775 88.7333 81.2743 88.7556 81.2756C88.778 81.2768 88.7999 81.2825 88.8201 81.2922C88.8403 81.3019 88.8584 81.3155 88.8733 81.3323C88.8883 81.349 88.8998 81.3685 88.9072 81.3896C88.9146 81.4108 88.9177 81.4332 88.9165 81.4556C88.9152 81.478 88.9096 81.4999 88.8998 81.5201C88.8901 81.5403 88.8765 81.5583 88.8598 81.5733C88.4219 81.9637 87.967 82.3439 87.5019 82.7071C87.4725 82.7291 87.4368 82.741 87.4001 82.741ZM89.5183 80.8944C89.4844 80.8946 89.4512 80.8846 89.423 80.8657C89.3948 80.8469 89.3729 80.82 89.3601 80.7886C89.3473 80.7572 89.3442 80.7226 89.3512 80.6895C89.3583 80.6563 89.3751 80.626 89.3995 80.6024C89.739 80.263 90.0784 79.9235 90.3772 79.6078C90.4086 79.5784 90.4499 79.562 90.4929 79.562C90.5359 79.5619 90.5774 79.5782 90.6088 79.6075C90.6403 79.6368 90.6595 79.677 90.6624 79.7199C90.6654 79.7628 90.6521 79.8052 90.625 79.8386C90.3093 80.1781 89.9766 80.5176 89.6337 80.857C89.6012 80.8833 89.5601 80.8965 89.5183 80.8944ZM91.6569 78.569C91.6245 78.5694 91.5927 78.5605 91.5651 78.5433C91.5376 78.5262 91.5156 78.5015 91.5017 78.4722C91.4877 78.4429 91.4825 78.4103 91.4865 78.3781C91.4906 78.3459 91.5038 78.3156 91.5245 78.2907C91.8912 77.8426 92.2476 77.3741 92.5803 76.9023C92.6064 76.8654 92.6461 76.8403 92.6906 76.8327C92.7352 76.8251 92.781 76.8354 92.8179 76.8615C92.8548 76.8877 92.8798 76.9274 92.8875 76.9719C92.8951 77.0165 92.8847 77.0623 92.8586 77.0992C92.5192 77.5778 92.1593 78.0497 91.7893 78.5079C91.7735 78.5269 91.7538 78.5422 91.7316 78.5527C91.7093 78.5633 91.685 78.5688 91.6603 78.569H91.6569ZM93.3101 76.298C93.2797 76.298 93.2498 76.2898 93.2236 76.2742C93.1975 76.2586 93.176 76.2363 93.1614 76.2096C93.1468 76.1829 93.1397 76.1527 93.1408 76.1223C93.1418 76.0919 93.1511 76.0623 93.1675 76.0367C93.4187 75.6497 93.6632 75.2491 93.894 74.8451C93.9165 74.806 93.9536 74.7774 93.9972 74.7656C94.0408 74.7538 94.0874 74.7598 94.1265 74.7823C94.1657 74.8048 94.1943 74.842 94.2061 74.8856C94.2178 74.9292 94.2118 74.9757 94.1893 75.0149C93.9551 75.4222 93.7073 75.8296 93.4527 76.2234C93.4376 76.2457 93.4174 76.2641 93.3938 76.2771C93.3702 76.2901 93.3438 76.2973 93.3169 76.298H93.3101ZM94.8648 73.545C94.836 73.5451 94.8076 73.5378 94.7824 73.5238C94.7571 73.5099 94.7359 73.4897 94.7206 73.4652C94.7053 73.4408 94.6965 73.4128 94.695 73.384C94.6935 73.3552 94.6994 73.3265 94.7121 73.3006C94.9667 72.7812 95.2043 72.2449 95.4216 71.7085C95.4387 71.6667 95.4717 71.6333 95.5134 71.6158C95.5551 71.5983 95.602 71.5981 95.6439 71.6152C95.6858 71.6323 95.7191 71.6653 95.7366 71.707C95.7541 71.7487 95.7544 71.7957 95.7373 71.8375C95.5166 72.3807 95.2756 72.9238 95.0176 73.4534C95.0039 73.4814 94.9826 73.5051 94.9563 73.5219C94.9299 73.5387 94.8995 73.5478 94.8682 73.5484L94.8648 73.545ZM95.9579 70.9583C95.9388 70.9617 95.9193 70.9617 95.9002 70.9583C95.8579 70.943 95.8234 70.9115 95.8043 70.8708C95.7852 70.83 95.7831 70.7834 95.7984 70.7411C95.9545 70.3099 96.1039 69.8652 96.2397 69.4172C96.2527 69.3721 96.2831 69.3342 96.3242 69.3116C96.3445 69.3004 96.3668 69.2933 96.3899 69.2907C96.413 69.2882 96.4363 69.2902 96.4586 69.2966C96.4809 69.3031 96.5017 69.3139 96.5198 69.3284C96.5379 69.3429 96.553 69.3608 96.5642 69.3812C96.5754 69.4015 96.5825 69.4238 96.585 69.4469C96.5876 69.47 96.5856 69.4933 96.5791 69.5156C96.4399 69.9671 96.2906 70.4186 96.1344 70.8734C96.118 70.9023 96.0935 70.9257 96.064 70.9408C96.0344 70.9559 96.0011 70.962 95.9681 70.9583H95.9579ZM96.8609 67.9303H96.8201C96.7766 67.9198 96.7389 67.8925 96.7153 67.8544C96.6918 67.8162 96.6843 67.7703 96.6945 67.7266C96.8269 67.1699 96.9457 66.5928 97.034 66.0293C97.0378 66.007 97.0459 65.9857 97.058 65.9666C97.07 65.9474 97.0857 65.9308 97.1041 65.9178C97.1226 65.9047 97.1434 65.8954 97.1654 65.8903C97.1875 65.8853 97.2103 65.8847 97.2326 65.8884C97.2549 65.8922 97.2762 65.9004 97.2953 65.9124C97.3145 65.9244 97.3311 65.9401 97.3442 65.9586C97.3572 65.977 97.3666 65.9978 97.3716 66.0199C97.3766 66.0419 97.3773 66.0647 97.3735 66.087C97.2716 66.6709 97.1494 67.2514 97.017 67.8149C97.0059 67.8478 96.985 67.8765 96.9571 67.8971C96.9292 67.9178 96.8956 67.9293 96.8609 67.9303ZM97.3803 65.1705H97.3599C97.316 65.1638 97.2764 65.1401 97.2498 65.1045C97.2231 65.069 97.2115 65.0244 97.2173 64.9804C97.2818 64.5255 97.3361 64.0604 97.3837 63.592C97.3888 63.5472 97.4112 63.5063 97.446 63.4777C97.4809 63.4492 97.5255 63.4354 97.5704 63.4392C97.5927 63.4413 97.6144 63.4479 97.6342 63.4584C97.654 63.469 97.6715 63.4834 97.6857 63.5007C97.6999 63.5181 97.7105 63.5381 97.7169 63.5596C97.7234 63.5811 97.7255 63.6036 97.7231 63.6259C97.6756 64.0978 97.6213 64.5696 97.5568 65.0279C97.5502 65.0687 97.529 65.1056 97.4971 65.1319C97.4652 65.1581 97.4249 65.1718 97.3837 65.1705H97.3803ZM97.6688 62.0237C97.6465 62.0228 97.6246 62.0175 97.6043 62.0082C97.5841 61.9988 97.5659 61.9856 97.5507 61.9692C97.5356 61.9528 97.5238 61.9336 97.5161 61.9126C97.5084 61.8917 97.5049 61.8694 97.5059 61.8472C97.5296 61.3108 97.5432 60.7609 97.5432 60.2177V60.1023C97.5432 60.0573 97.5611 60.0141 97.5929 59.9823C97.6247 59.9505 97.6679 59.9326 97.7129 59.9326C97.7579 59.9326 97.8011 59.9505 97.8329 59.9823C97.8648 60.0141 97.8827 60.0573 97.8827 60.1023V60.2211C97.8827 60.7711 97.8827 61.3244 97.8453 61.8675C97.8418 61.912 97.821 61.9532 97.7874 61.9825C97.7537 62.0117 97.7099 62.0265 97.6654 62.0237H97.6688ZM97.6858 59.2129C97.6419 59.213 97.5997 59.196 97.5681 59.1656C97.5365 59.1353 97.5178 59.0938 97.516 59.05C97.516 58.5917 97.4787 58.1199 97.4481 57.6514C97.4468 57.6291 97.4498 57.6068 97.4571 57.5856C97.4644 57.5645 97.4757 57.545 97.4906 57.5283C97.5054 57.5116 97.5234 57.498 97.5435 57.4882C97.5636 57.4785 97.5854 57.4728 97.6077 57.4715C97.6301 57.4696 97.6526 57.4724 97.6739 57.4795C97.6953 57.4866 97.7149 57.4979 97.7318 57.5128C97.7486 57.5277 97.7622 57.5459 97.7718 57.5662C97.7814 57.5865 97.7868 57.6086 97.7876 57.631C97.8182 58.1029 97.8419 58.5781 97.8555 59.0398C97.8564 59.0621 97.8529 59.0844 97.8452 59.1053C97.8375 59.1262 97.8258 59.1455 97.8106 59.1618C97.7955 59.1782 97.7773 59.1915 97.757 59.2008C97.7368 59.2102 97.7148 59.2155 97.6926 59.2163L97.6858 59.2129ZM97.4651 56.0593C97.4229 56.0595 97.3821 56.044 97.3507 56.0158C97.3193 55.9875 97.2996 55.9486 97.2954 55.9066C97.2343 55.3363 97.1596 54.749 97.0747 54.1685C97.0684 54.1235 97.0803 54.0778 97.1077 54.0416C97.135 54.0053 97.1757 53.9813 97.2207 53.975C97.2657 53.9687 97.3114 53.9806 97.3477 54.0079C97.384 54.0353 97.4079 54.076 97.4142 54.121C97.4991 54.7049 97.5737 55.2955 97.6348 55.8692C97.6396 55.9138 97.6266 55.9584 97.5986 55.9933C97.5706 56.0283 97.53 56.0508 97.4855 56.0559H97.4685L97.4651 56.0593ZM97.0815 53.2757C97.0414 53.2755 97.0027 53.261 96.9723 53.2349C96.9418 53.2088 96.9216 53.1728 96.9152 53.1332C96.8382 52.6806 96.7545 52.2212 96.664 51.755C96.6554 51.7099 96.6651 51.6634 96.6909 51.6255C96.7167 51.5876 96.7564 51.5615 96.8015 51.553C96.8465 51.5444 96.8931 51.5541 96.9309 51.5799C96.9688 51.6057 96.9949 51.6454 97.0034 51.6905C97.0962 52.1589 97.1811 52.6217 97.258 53.0789C97.2619 53.1009 97.2614 53.1236 97.2565 53.1454C97.2516 53.1673 97.2424 53.188 97.2295 53.2063C97.2166 53.2246 97.2001 53.2402 97.1811 53.2521C97.1621 53.264 97.141 53.272 97.1189 53.2757H97.0883H97.0815ZM96.4637 50.1731C96.425 50.1732 96.3875 50.1602 96.3572 50.1361C96.327 50.1121 96.3059 50.0784 96.2974 50.0407C96.1684 49.4806 96.0292 48.9103 95.8798 48.3434C95.8686 48.2983 95.8757 48.2507 95.8995 48.2109C95.9234 48.1711 95.9621 48.1425 96.0071 48.1312C96.0521 48.1199 96.0998 48.127 96.1396 48.1509C96.1794 48.1748 96.208 48.2135 96.2193 48.2585C96.3687 48.8322 96.5112 49.4059 96.6402 49.9558C96.6452 49.9777 96.6459 50.0003 96.6421 50.0224C96.6383 50.0445 96.6302 50.0656 96.6182 50.0845C96.6062 50.1035 96.5906 50.1198 96.5722 50.1327C96.5538 50.1456 96.5331 50.1547 96.5112 50.1595H96.4739L96.4637 50.1731Z" fill="#4382C4"/>
<path d="M95.7708 47.4318C95.7336 47.4316 95.6975 47.4192 95.6681 47.3965C95.6387 47.3738 95.6175 47.3421 95.6078 47.3062C95.5467 47.0799 95.4845 46.8627 95.4211 46.6544C95.4128 46.6264 95.4118 46.5966 95.4183 46.5681C95.4249 46.5395 95.4387 46.5131 95.4585 46.4915C95.4585 46.4915 95.6214 46.3116 95.8896 45.9823C95.9027 45.9625 95.9198 45.9457 95.9398 45.9329C95.9598 45.9201 95.9823 45.9117 96.0057 45.9082C96.0292 45.9046 96.0531 45.906 96.076 45.9123C96.0989 45.9186 96.1202 45.9296 96.1386 45.9446C96.157 45.9596 96.172 45.9784 96.1827 45.9996C96.1934 46.0207 96.1995 46.0439 96.2007 46.0677C96.2018 46.0914 96.198 46.115 96.1895 46.1372C96.1809 46.1593 96.1678 46.1794 96.151 46.1962C95.9745 46.4134 95.8421 46.5662 95.7708 46.6477C95.8251 46.8355 95.8783 47.0233 95.9303 47.2112C95.9365 47.2328 95.9383 47.2554 95.9357 47.2778C95.933 47.3001 95.926 47.3217 95.9149 47.3413C95.9039 47.3608 95.889 47.378 95.8713 47.3918C95.8535 47.4056 95.8332 47.4158 95.8115 47.4216L95.7708 47.4318Z" fill="#4382C4"/>
<path d="M97.1098 44.851C97.0776 44.85 97.0464 44.8399 97.0197 44.8218C96.9931 44.8037 96.9721 44.7784 96.9593 44.7489C96.9465 44.7193 96.9424 44.6867 96.9474 44.6549C96.9524 44.6231 96.9663 44.5934 96.9876 44.5692C97.3271 44.094 97.6665 43.6018 97.9856 43.1061C97.997 43.0861 98.0124 43.0686 98.0308 43.0548C98.0492 43.0409 98.0702 43.0309 98.0926 43.0254C98.115 43.0199 98.1383 43.019 98.161 43.0228C98.1837 43.0266 98.2054 43.035 98.2248 43.0475C98.2442 43.0599 98.2609 43.0762 98.2738 43.0953C98.2866 43.1144 98.2955 43.1359 98.2998 43.1586C98.3041 43.1812 98.3037 43.2045 98.2987 43.227C98.2938 43.2495 98.2842 43.2707 98.2708 43.2894C97.9313 43.7919 97.5918 44.2909 97.2524 44.7695C97.2375 44.794 97.2165 44.8144 97.1916 44.8286C97.1667 44.8429 97.1385 44.8506 97.1098 44.851Z" fill="#4382C4"/>
<path d="M98.6902 42.4722C98.66 42.4724 98.6303 42.4645 98.6041 42.4493C98.578 42.4342 98.5563 42.4123 98.5415 42.3861C98.5266 42.3598 98.519 42.33 98.5195 42.2998C98.52 42.2695 98.5285 42.24 98.5442 42.2142C98.7886 41.8102 99.0262 41.3961 99.2503 40.9854C99.2719 40.9457 99.3084 40.9163 99.3516 40.9036C99.3949 40.8909 99.4415 40.8959 99.4811 40.9175C99.5207 40.9391 99.5501 40.9755 99.5629 41.0188C99.5756 41.0621 99.5706 41.1087 99.549 41.1483C99.3216 41.5658 99.0806 41.9834 98.8361 42.3907C98.8209 42.4157 98.7995 42.4364 98.7739 42.4507C98.7483 42.465 98.7195 42.4724 98.6902 42.4722ZM100.208 39.6479C100.184 39.653 100.16 39.653 100.136 39.6479C100.116 39.6384 100.098 39.625 100.082 39.6084C100.067 39.5918 100.056 39.5723 100.048 39.5512C100.04 39.53 100.037 39.5076 100.038 39.4851C100.039 39.4627 100.045 39.4407 100.055 39.4204C100.309 38.8807 100.547 38.3376 100.764 37.7978C100.773 37.7771 100.785 37.7582 100.8 37.7422C100.816 37.7262 100.834 37.7134 100.855 37.7046C100.875 37.6958 100.897 37.6911 100.92 37.6907C100.942 37.6904 100.964 37.6945 100.985 37.7028C101.006 37.711 101.025 37.7233 101.041 37.7388C101.057 37.7544 101.069 37.7729 101.078 37.7934C101.087 37.8139 101.092 37.8359 101.092 37.8582C101.092 37.8805 101.088 37.9027 101.08 37.9234C100.863 38.4665 100.622 39.0199 100.364 39.5664C100.347 39.5941 100.323 39.6164 100.294 39.6309C100.265 39.6453 100.233 39.6512 100.201 39.6479H100.208ZM101.297 37.017C101.27 37.017 101.243 37.0105 101.219 36.9979C101.195 36.9853 101.174 36.9671 101.158 36.9448C101.143 36.9225 101.133 36.8967 101.129 36.8697C101.125 36.8427 101.128 36.8152 101.138 36.7896C101.297 36.3415 101.443 35.8866 101.572 35.4318C101.585 35.3867 101.615 35.3486 101.656 35.3257C101.696 35.3027 101.744 35.2969 101.789 35.3096C101.834 35.3222 101.873 35.3521 101.896 35.3929C101.918 35.4336 101.924 35.4818 101.912 35.5268C101.779 35.9783 101.63 36.4366 101.47 36.8847C101.461 36.9248 101.438 36.9603 101.405 36.9846C101.372 37.009 101.331 37.0205 101.29 37.017H101.297ZM102.17 33.9347H102.136C102.114 33.9303 102.093 33.9216 102.075 33.9091C102.056 33.8966 102.04 33.8806 102.028 33.862C102.016 33.8434 102.007 33.8226 102.003 33.8007C101.999 33.7788 101.999 33.7563 102.003 33.7344C102.126 33.1506 102.224 32.5633 102.292 31.993C102.299 31.9486 102.322 31.9084 102.357 31.8807C102.393 31.8529 102.437 31.8397 102.482 31.8436C102.504 31.8462 102.526 31.8531 102.546 31.8641C102.565 31.875 102.583 31.8898 102.596 31.9074C102.61 31.9251 102.621 31.9454 102.627 31.9671C102.633 31.9888 102.634 32.0114 102.631 32.0337C102.56 32.6176 102.462 33.2117 102.339 33.8057C102.329 33.8434 102.307 33.8764 102.275 33.8992C102.244 33.9221 102.205 33.9334 102.166 33.9313L102.17 33.9347ZM102.56 31.1138C102.538 31.1125 102.516 31.1068 102.496 31.0971C102.476 31.0873 102.458 31.0737 102.443 31.057C102.428 31.0403 102.417 31.0208 102.409 30.9997C102.402 30.9785 102.399 30.9562 102.4 30.9339C102.428 30.5401 102.438 30.1463 102.438 29.7627V29.5217C102.437 29.4994 102.441 29.4773 102.449 29.4565C102.458 29.4357 102.47 29.4168 102.485 29.4007C102.501 29.3846 102.519 29.3718 102.539 29.3628C102.56 29.3539 102.582 29.349 102.604 29.3486C102.649 29.3494 102.691 29.367 102.723 29.3978C102.755 29.4287 102.775 29.4705 102.777 29.5149V29.7594C102.777 30.1531 102.777 30.5537 102.74 30.9543C102.739 30.9769 102.733 30.999 102.723 31.0193C102.713 31.0397 102.699 31.0578 102.682 31.0727C102.665 31.0875 102.645 31.0988 102.623 31.1059C102.602 31.113 102.579 31.1157 102.557 31.1138H102.56ZM102.479 27.9127C102.437 27.913 102.397 27.8979 102.365 27.8704C102.334 27.8428 102.314 27.8047 102.309 27.7633C102.239 27.1801 102.138 26.6011 102.007 26.0287C102.002 26.0064 102.001 25.9833 102.005 25.9609C102.009 25.9384 102.018 25.9169 102.03 25.8977C102.042 25.8785 102.058 25.8619 102.077 25.8488C102.096 25.8357 102.117 25.8265 102.139 25.8216C102.161 25.8167 102.184 25.8162 102.207 25.8202C102.229 25.8242 102.251 25.8326 102.27 25.8449C102.289 25.8572 102.306 25.8732 102.319 25.8919C102.332 25.9106 102.341 25.9317 102.346 25.954C102.481 26.5387 102.584 27.1302 102.655 27.726C102.658 27.7483 102.656 27.7709 102.65 27.7926C102.644 27.8143 102.634 27.8346 102.62 27.8523C102.606 27.87 102.589 27.8847 102.569 27.8957C102.55 27.9066 102.528 27.9136 102.506 27.9161H102.485L102.479 27.9127ZM101.901 25.1257C101.865 25.1257 101.829 25.1138 101.8 25.0918C101.77 25.0697 101.749 25.0387 101.739 25.0035C101.603 24.5554 101.447 24.1073 101.273 23.6728C101.265 23.6521 101.261 23.6299 101.261 23.6076C101.262 23.5853 101.266 23.5633 101.275 23.5428C101.284 23.5223 101.297 23.5038 101.313 23.4882C101.329 23.4726 101.348 23.4604 101.369 23.4522C101.389 23.4439 101.411 23.4398 101.434 23.4401C101.456 23.4405 101.478 23.4452 101.499 23.454C101.519 23.4628 101.538 23.4756 101.553 23.4916C101.569 23.5076 101.581 23.5265 101.589 23.5472C101.766 23.9919 101.929 24.4468 102.064 24.9051C102.077 24.9478 102.073 24.9939 102.052 25.0333C102.031 25.0727 101.995 25.1022 101.952 25.1155L101.901 25.1257ZM100.679 22.1622C100.649 22.162 100.618 22.1533 100.592 22.1371C100.566 22.121 100.544 22.098 100.53 22.0705C100.258 21.558 99.9564 21.0522 99.6305 20.5565C99.6105 20.5193 99.6051 20.4759 99.6155 20.4349C99.6258 20.3939 99.651 20.3582 99.6863 20.3348C99.7215 20.3115 99.7643 20.3021 99.806 20.3086C99.8478 20.3151 99.8857 20.3369 99.9122 20.3698C100.252 20.8722 100.554 21.3882 100.829 21.9144C100.839 21.9342 100.846 21.9559 100.848 21.9783C100.85 22.0007 100.848 22.0232 100.841 22.0447C100.835 22.0662 100.824 22.0861 100.81 22.1034C100.795 22.1206 100.777 22.1349 100.757 22.1452C100.733 22.1571 100.706 22.163 100.679 22.1622ZM99.1552 19.7588C99.1289 19.7588 99.1029 19.7527 99.0793 19.7409C99.0558 19.7291 99.0353 19.712 99.0195 19.6909C98.7445 19.3209 98.4458 18.9509 98.1335 18.5911C98.1042 18.5568 98.0897 18.5124 98.0932 18.4675C98.0967 18.4227 98.1179 18.381 98.1521 18.3517C98.1863 18.3225 98.2308 18.308 98.2757 18.3115C98.3205 18.315 98.3622 18.3362 98.3914 18.3704C98.7071 18.737 99.0093 19.1138 99.291 19.4906C99.3109 19.5158 99.3233 19.5461 99.3267 19.5781C99.33 19.61 99.3243 19.6422 99.31 19.671C99.2958 19.6998 99.2737 19.724 99.2463 19.7407C99.2189 19.7575 99.1873 19.7661 99.1552 19.7656V19.7588ZM97.0472 17.3486C97.0024 17.348 96.9597 17.3297 96.9284 17.2977C96.521 16.8937 96.0831 16.4898 95.6282 16.0994C95.6113 16.0849 95.5974 16.0672 95.5873 16.0474C95.5772 16.0275 95.5711 16.0058 95.5693 15.9836C95.5676 15.9614 95.5703 15.939 95.5772 15.9179C95.5841 15.8967 95.5951 15.877 95.6096 15.8601C95.624 15.8431 95.6417 15.8292 95.6616 15.8191C95.6815 15.809 95.7031 15.8029 95.7254 15.8012C95.7476 15.7995 95.7699 15.8021 95.7911 15.809C95.8123 15.8159 95.8319 15.8269 95.8489 15.8414C96.3105 16.2386 96.7519 16.6459 97.166 17.0567C97.1917 17.08 97.2096 17.1106 97.2173 17.1444C97.2251 17.1782 97.2223 17.2135 97.2094 17.2457C97.1964 17.2779 97.1739 17.3053 97.145 17.3243C97.116 17.3433 97.0818 17.353 97.0472 17.352V17.3486ZM94.9154 15.4612C94.8771 15.461 94.84 15.4478 94.8101 15.4239C94.4469 15.1353 94.0667 14.8468 93.6797 14.5684C93.6617 14.5553 93.6464 14.5387 93.6347 14.5197C93.6231 14.5006 93.6153 14.4794 93.6118 14.4574C93.6084 14.4353 93.6093 14.4128 93.6145 14.391C93.6198 14.3693 93.6292 14.3489 93.6424 14.3308C93.6555 14.3128 93.6721 14.2975 93.6912 14.2858C93.7102 14.2742 93.7314 14.2664 93.7535 14.2629C93.7755 14.2595 93.7981 14.2604 93.8198 14.2656C93.8415 14.2709 93.8619 14.2803 93.88 14.2935C94.2704 14.5752 94.654 14.8672 95.0206 15.1591C95.0493 15.1806 95.0705 15.2108 95.0811 15.2451C95.0916 15.2794 95.091 15.3162 95.0793 15.3502C95.0676 15.3842 95.0454 15.4135 95.016 15.4341C94.9865 15.4547 94.9513 15.4653 94.9154 15.4646V15.4612ZM92.3083 13.5976C92.2758 13.5975 92.244 13.5881 92.2166 13.5704C91.7312 13.2581 91.222 12.9458 90.7026 12.6471C90.6635 12.6246 90.6349 12.5874 90.6231 12.5438C90.6113 12.5002 90.6173 12.4537 90.6398 12.4146C90.6623 12.3754 90.6995 12.3468 90.7431 12.335C90.7867 12.3232 90.8332 12.3292 90.8724 12.3518C91.3951 12.6573 91.9077 12.9696 92.3966 13.2853C92.4284 13.3042 92.4532 13.333 92.4672 13.3673C92.4811 13.4016 92.4835 13.4395 92.4739 13.4753C92.4642 13.5111 92.4432 13.5427 92.4139 13.5654C92.3846 13.5881 92.3487 13.6006 92.3117 13.601L92.3083 13.5976Z" fill="#4382C4"/>
<path d="M89.8431 12.1434C89.8146 12.1436 89.7866 12.1366 89.7616 12.1231L89.1641 11.804C89.1417 11.7955 89.1214 11.7823 89.1044 11.7653C89.0874 11.7484 89.0743 11.728 89.0657 11.7056C89.0572 11.6832 89.0536 11.6592 89.055 11.6353C89.0564 11.6113 89.0629 11.5879 89.074 11.5667C89.0851 11.5454 89.1006 11.5268 89.1195 11.5119C89.1383 11.4971 89.1601 11.4864 89.1833 11.4806C89.2066 11.4748 89.2309 11.474 89.2545 11.4783C89.2781 11.4825 89.3005 11.4917 89.3203 11.5053L89.9211 11.8277C89.9526 11.8463 89.9772 11.8745 89.9914 11.9082C90.0055 11.9419 90.0084 11.9792 89.9996 12.0147C89.9909 12.0501 89.9709 12.0818 89.9427 12.105C89.9145 12.1282 89.8795 12.1417 89.8431 12.1434Z" fill="#4382C4"/>
<path d="M97.2341 46.4705C97.256 45.3738 96.3847 44.4669 95.2879 44.445C94.1912 44.423 93.2843 45.2943 93.2624 46.3911C93.2404 47.4879 94.1118 48.3947 95.2085 48.4167C96.3053 48.4386 97.2121 47.5673 97.2341 46.4705Z" fill="#FFC107"/>
<path d="M82.0978 86.72C82.1226 85.6235 81.2539 84.7145 80.1575 84.6896C79.061 84.6647 78.152 85.5334 78.1271 86.6299C78.1022 87.7264 78.9709 88.6354 80.0674 88.6603C81.1638 88.6852 82.0729 87.8165 82.0978 86.72Z" fill="#FFC107"/>
<path d="M89.2418 23.5383C95.7417 23.5383 101.011 18.2691 101.011 11.7691C101.011 5.26922 95.7417 0 89.2418 0C82.7419 0 77.4727 5.26922 77.4727 11.7691C77.4727 18.2691 82.7419 23.5383 89.2418 23.5383Z" fill="#E9F3FF"/>
<path d="M89.2441 21.2177C94.4616 21.2177 98.6913 16.988 98.6913 11.7705C98.6913 6.55291 94.4616 2.32324 89.2441 2.32324C84.0265 2.32324 79.7969 6.55291 79.7969 11.7705C79.7969 16.988 84.0265 21.2177 89.2441 21.2177Z" fill="#4382C4"/>
<path d="M89.2435 12.4342C89.6109 12.4342 89.9088 12.1363 89.9088 11.7689C89.9088 11.4014 89.6109 11.1035 89.2435 11.1035C88.876 11.1035 88.5781 11.4014 88.5781 11.7689C88.5781 12.1363 88.876 12.4342 89.2435 12.4342Z" fill="white"/>
<path d="M88.8281 3.28516H89.6768V5.37963H88.8281V3.28516Z" fill="white"/>
<path d="M94.9531 5.47363L95.5532 6.07372L94.0722 7.55474L93.4721 6.95465L94.9531 5.47363Z" fill="white"/>
<path d="M97.7383 11.3506V12.1992H95.6438V11.3506H97.7383Z" fill="white"/>
<path d="M95.5469 17.4775L94.9468 18.0776L93.4658 16.5966L94.0659 15.9965L95.5469 17.4775Z" fill="white"/>
<path d="M89.6719 20.2598H88.8232V18.1653H89.6719V20.2598Z" fill="white"/>
<path d="M83.5469 18.0713L82.9468 17.4712L84.4278 15.9902L85.0279 16.5903L83.5469 18.0713Z" fill="white"/>
<path d="M80.7617 12.1953V11.3467H82.8562V12.1953H80.7617Z" fill="white"/>
<path d="M82.9492 6.07129L83.5493 5.4712L85.0303 6.95222L84.4302 7.55231L82.9492 6.07129Z" fill="white"/>
<path d="M89.4455 6.21484H89.0483L88.848 11.3509C88.8457 11.4058 88.8546 11.4606 88.874 11.512C88.8934 11.5634 88.9231 11.6103 88.9611 11.65C88.9992 11.6896 89.0449 11.7212 89.0955 11.7427C89.146 11.7642 89.2004 11.7753 89.2554 11.7752C89.3103 11.7753 89.3647 11.7642 89.4153 11.7427C89.4658 11.7212 89.5115 11.6896 89.5496 11.65C89.5876 11.6103 89.6173 11.5634 89.6367 11.512C89.6562 11.4606 89.665 11.4058 89.6627 11.3509L89.4455 6.21484Z" fill="white"/>
<path d="M85.168 15.5764L85.4531 15.8548L89.2415 12.3617C89.281 12.3237 89.3125 12.2781 89.334 12.2276C89.3555 12.1772 89.3665 12.1229 89.3665 12.0681C89.3665 12.0132 89.3555 11.9589 89.334 11.9085C89.3125 11.858 89.281 11.8124 89.2415 11.7744C89.2035 11.7349 89.1579 11.7034 89.1074 11.682C89.057 11.6605 89.0027 11.6494 88.9479 11.6494C88.893 11.6494 88.8388 11.6605 88.7883 11.682C88.7378 11.7034 88.6922 11.7349 88.6542 11.7744L85.168 15.5764Z" fill="white"/>
<path d="M68.4808 77.2051H60.2251C59.9908 77.2051 59.8008 77.3951 59.8008 77.6294C59.8008 77.8638 59.9908 78.0537 60.2251 78.0537H68.4808C68.7152 78.0537 68.9051 77.8638 68.9051 77.6294C68.9051 77.3951 68.7152 77.2051 68.4808 77.2051Z" fill="white"/>
<path d="M99.1367 96.624C100.196 96.624 101.055 95.7653 101.055 94.7061C101.055 93.6468 100.196 92.7881 99.1367 92.7881C98.0774 92.7881 97.2188 93.6468 97.2188 94.7061C97.2188 95.7653 98.0774 96.624 99.1367 96.624Z" fill="#E9F3FF"/>
<path d="M2.14064 21.2734C1.08138 21.2734 0.22268 20.4147 0.22268 19.3555C0.22268 18.2962 1.08138 17.4375 2.14064 17.4375C3.1999 17.4375 4.05859 18.2962 4.05859 19.3555C4.05859 20.4147 3.1999 21.2734 2.14064 21.2734Z" fill="#E9F3FF"/>
<path d="M93.9427 93.2506C94.4676 93.2506 94.8932 92.825 94.8932 92.3001C94.8932 91.7752 94.4676 91.3496 93.9427 91.3496C93.4177 91.3496 92.9922 91.7752 92.9922 92.3001C92.9922 92.825 93.4177 93.2506 93.9427 93.2506Z" fill="#E9F3FF"/>
<path d="M7.33466 17.901C6.80971 17.901 6.38417 17.4754 6.38417 16.9505C6.38417 16.4255 6.80971 16 7.33466 16C7.8596 16 8.28516 16.4255 8.28516 16.9505C8.28516 17.4754 7.8596 17.901 7.33466 17.901Z" fill="#E9F3FF"/>
<path d="M8.95184 20.901C8.4269 20.901 8.00136 20.4754 8.00136 19.9505C8.00136 19.4255 8.4269 19 8.95184 19C9.47679 19 9.90234 19.4255 9.90234 19.9505C9.90234 20.4754 9.47679 20.901 8.95184 20.901Z" fill="#E9F3FF"/>
</svg>
