<svg width="21" height="21" viewBox="0 0 21 21" fill="none" xmlns="http://www.w3.org/2000/svg">
<g id="shopping-bag">
<path id="Vector" d="M5.84613 2.16675L3.34613 5.50008V17.1667C3.34613 17.6088 3.52173 18.0327 3.83429 18.3453C4.14685 18.6578 4.57077 18.8334 5.0128 18.8334H16.6795C17.1215 18.8334 17.5454 18.6578 17.858 18.3453C18.1705 18.0327 18.3461 17.6088 18.3461 17.1667V5.50008L15.8461 2.16675H5.84613Z" stroke="#727272" stroke-width="1.5" stroke-linecap="round" stroke-linejoin="round"/>
<path id="Vector_2" d="M3.34613 5.5H18.3461" stroke="#727272" stroke-width="1.5" stroke-linecap="round" stroke-linejoin="round"/>
<path id="Vector_3" d="M14.1795 8.83325C14.1795 9.71731 13.8283 10.5652 13.2032 11.1903C12.5781 11.8154 11.7302 12.1666 10.8462 12.1666C9.9621 12.1666 9.11425 11.8154 8.48913 11.1903C7.86401 10.5652 7.51282 9.71731 7.51282 8.83325" stroke="#727272" stroke-width="1.5" stroke-linecap="round" stroke-linejoin="round"/>
</g>
</svg>
