<svg width="84" height="56" viewBox="0 0 84 56" fill="none" xmlns="http://www.w3.org/2000/svg">
<path d="M42 0H80C82.2091 0 84 1.79086 84 4V52C84 54.2091 82.2091 56 80 56H42V0Z" fill="black" fill-opacity="0.6"/>
<path d="M0 4C0 1.79086 1.79086 0 4 0H42V56H4C1.79086 56 0 54.2091 0 52V4Z" fill="white" fill-opacity="0.34"/>
<path d="M0 4C0 1.79086 1.79086 0 4 0H42V56H4C1.79086 56 0 54.2091 0 52V4Z" fill="white" fill-opacity="0.78"/>
<path d="M8 10C8 8.89543 8.89543 8 10 8H42V12H10C8.89543 12 8 11.1046 8 10Z" fill="black" fill-opacity="0.1"/>
<path d="M8 18C8 16.8954 8.89543 16 10 16H42V36H8V18Z" fill="black" fill-opacity="0.1"/>
<path d="M42 40H8V46C8 47.1046 8.89543 48 10 48H42V40Z" fill="black" fill-opacity="0.1"/>
<path fill-rule="evenodd" clip-rule="evenodd" d="M4 1H80C81.6569 1 83 2.34315 83 4V52C83 53.6569 81.6569 55 80 55H4C2.34315 55 1 53.6569 1 52V4C1 2.34315 2.34315 1 4 1ZM0 4C0 1.79086 1.79086 0 4 0H80C82.2091 0 84 1.79086 84 4V52C84 54.2091 82.2091 56 80 56H4C1.79086 56 0 54.2091 0 52V4ZM54 8H42V12H54C55.1046 12 56 11.1046 56 10C56 8.89543 55.1046 8 54 8ZM74 16H42V36H76V18C76 16.8954 75.1046 16 74 16ZM42 40H76V46C76 47.1046 75.1046 48 74 48H42V40Z" fill="white" fill-opacity="0.23"/>
</svg>
