<svg width="84" height="56" viewBox="0 0 84 56" fill="none" xmlns="http://www.w3.org/2000/svg">
<path d="M0 4C0 1.79086 1.79086 0 4 0H80C82.2091 0 84 1.79086 84 4V52C84 54.2091 82.2091 56 80 56H4C1.79086 56 0 54.2091 0 52V4Z" fill="black" fill-opacity="0.6"/>
<path d="M10 8C8.89543 8 8 8.89543 8 10C8 11.1046 8.89543 12 10 12H54C55.1046 12 56 11.1046 56 10C56 8.89543 55.1046 8 54 8H10Z" fill="white" fill-opacity="0.23"/>
<path d="M8 18C8 16.8954 8.89543 16 10 16H74C75.1046 16 76 16.8954 76 18V36H8V18Z" fill="white" fill-opacity="0.23"/>
<path d="M76 40H8V46C8 47.1046 8.89543 48 10 48H74C75.1046 48 76 47.1046 76 46V40Z" fill="white" fill-opacity="0.23"/>
<path fill-rule="evenodd" clip-rule="evenodd" d="M0 4C0 1.79086 1.79086 0 4 0H80C82.2091 0 84 1.79086 84 4V52C84 54.2091 82.2091 56 80 56H4C1.79086 56 0 54.2091 0 52V4ZM4 1H80C81.6569 1 83 2.34315 83 4V52C83 53.6569 81.6569 55 80 55H4C2.34315 55 1 53.6569 1 52V4C1 2.34315 2.34315 1 4 1Z" fill="white" fill-opacity="0.23"/>
</svg>
