<svg width="84" height="56" viewBox="0 0 84 56" fill="none" xmlns="http://www.w3.org/2000/svg">
<path d="M0 4C0 1.79086 1.79086 0 4 0H80C82.2091 0 84 1.79086 84 4V52C84 54.2091 82.2091 56 80 56H4C1.79086 56 0 54.2091 0 52V4Z" fill="white" fill-opacity="0.34"/>
<path d="M0 4C0 1.79086 1.79086 0 4 0H80C82.2091 0 84 1.79086 84 4V52C84 54.2091 82.2091 56 80 56H4C1.79086 56 0 54.2091 0 52V4Z" fill="white" fill-opacity="0.78"/>
<path d="M8 10C8 8.89543 8.89543 8 10 8H54C55.1046 8 56 8.89543 56 10C56 11.1046 55.1046 12 54 12H10C8.89543 12 8 11.1046 8 10Z" fill="black" fill-opacity="0.1"/>
<path d="M8 18C8 16.8954 8.89543 16 10 16H74C75.1046 16 76 16.8954 76 18V36H8V18Z" fill="black" fill-opacity="0.1"/>
<path d="M76 40H8V46C8 47.1046 8.89543 48 10 48H74C75.1046 48 76 47.1046 76 46V40Z" fill="black" fill-opacity="0.1"/>
</svg>
