<?xml version="1.0" encoding="UTF-8"?>
<!DOCTYPE svg PUBLIC "-//W3C//DTD SVG 1.1//EN" "http://www.w3.org/Graphics/SVG/1.1/DTD/svg11.dtd">
<svg xmlns="http://www.w3.org/2000/svg" version="1.1" width="2458px" height="603px" style="shape-rendering:geometricPrecision; text-rendering:geometricPrecision; image-rendering:optimizeQuality; fill-rule:evenodd; clip-rule:evenodd" xmlns:xlink="http://www.w3.org/1999/xlink">
<g><path style="opacity:0.985" fill="#fefefe" d="M 290.5,-0.5 C 297.833,-0.5 305.167,-0.5 312.5,-0.5C 407.398,5.36125 484.231,45.3613 543,119.5C 595.041,192.351 613.041,273.017 597,361.5C 575.449,457.69 520.949,528.19 433.5,573C 398.481,589.419 361.814,599.253 323.5,602.5C 308.833,602.5 294.167,602.5 279.5,602.5C 177.631,592.676 99.1309,545.01 44,459.5C 16.7101,413.471 1.87672,363.804 -0.5,310.5C -0.5,304.167 -0.5,297.833 -0.5,291.5C 3.90312,207.204 36.5698,136.037 97.5,78C 152.712,29.7377 217.045,3.57103 290.5,-0.5 Z M 291.5,43.5 C 392.376,43.5051 469.542,85.8384 523,170.5C 562.587,240.455 569.254,313.455 543,389.5C 508.682,475.147 446.849,529.647 357.5,553C 260.425,571.195 177.925,544.695 110,473.5C 44.5772,395.71 27.9105,308.377 60,211.5C 89.1667,139.667 139.667,89.1667 211.5,60C 237.532,50.6944 264.199,45.1944 291.5,43.5 Z"/></g>
<g><path style="opacity:0.984" fill="#fefefe" d="M 1354.5,61.5 C 1371.83,61.5 1389.17,61.5 1406.5,61.5C 1406.33,179.834 1406.5,298.167 1407,416.5C 1408.04,420.869 1410.54,424.035 1414.5,426C 1425.21,426.495 1435.88,425.995 1446.5,424.5C 1446.5,439.167 1446.5,453.833 1446.5,468.5C 1429.98,472.319 1413.31,473.153 1396.5,471C 1373.26,466.754 1359.76,452.921 1356,429.5C 1354.52,306.854 1354.02,184.187 1354.5,61.5 Z"/></g>
<g><path style="opacity:0.97" fill="#fdfdfd" d="M 197.5,189.5 C 214.917,188.252 224.917,196.252 227.5,213.5C 224.858,231.294 214.525,239.128 196.5,237C 179.158,229.146 174.658,216.646 183,199.5C 186.689,194.28 191.522,190.947 197.5,189.5 Z"/></g>
<g><path style="opacity:0.97" fill="#fdfdfd" d="M 394.5,189.5 C 412.425,187.763 422.758,195.763 425.5,213.5C 421.957,232.771 410.624,240.271 391.5,236C 377.638,228.07 373.472,216.57 379,201.5C 382.695,195.424 387.862,191.424 394.5,189.5 Z"/></g>
<g><path style="opacity:0.98" fill="#fefefe" d="M 1150.5,207.5 C 1179.86,204.836 1207.53,210.336 1233.5,224C 1259.61,241.713 1273.11,266.546 1274,298.5C 1274.5,354.832 1274.67,411.166 1274.5,467.5C 1257.5,467.5 1240.5,467.5 1223.5,467.5C 1223.98,408.462 1223.48,349.462 1222,290.5C 1218.07,278.802 1210.9,269.635 1200.5,263C 1183.71,254.489 1166.05,252.156 1147.5,256C 1130.71,259.263 1114.88,265.096 1100,273.5C 1099.5,338.166 1099.33,402.832 1099.5,467.5C 1082.83,467.5 1066.17,467.5 1049.5,467.5C 1049.33,391.833 1049.5,316.166 1050,240.5C 1081.38,222.762 1114.88,211.762 1150.5,207.5 Z"/></g>
<g><path style="opacity:0.974" fill="#fefefe" d="M 1887.5,207.5 C 1914.05,204.909 1938.72,210.409 1961.5,224C 1968.97,229.304 1975.64,235.47 1981.5,242.5C 1999.64,228.597 2019.64,218.097 2041.5,211C 2066.05,205.088 2090.05,206.755 2113.5,216C 2140.67,230.202 2155.5,252.702 2158,283.5C 2159.45,344.815 2159.95,406.148 2159.5,467.5C 2142.83,467.5 2126.17,467.5 2109.5,467.5C 2109.98,407.796 2109.48,348.129 2108,288.5C 2100.59,266.274 2085.09,254.941 2061.5,254.5C 2040.08,257.042 2020.41,264.375 2002.5,276.5C 2001.5,340.163 2001.17,403.83 2001.5,467.5C 1984.83,467.5 1968.17,467.5 1951.5,467.5C 1951.98,407.796 1951.48,348.129 1950,288.5C 1941.72,266.073 1925.55,254.739 1901.5,254.5C 1881.13,256.066 1862.13,262.066 1844.5,272.5C 1843.5,337.497 1843.17,402.497 1843.5,467.5C 1826.5,467.5 1809.5,467.5 1792.5,467.5C 1792.33,391.833 1792.5,316.166 1793,240.5C 1822.41,223.199 1853.91,212.199 1887.5,207.5 Z"/></g>
<g><path style="opacity:0.983" fill="#fefefe" d="M 2457.5,323.5 C 2457.5,333.833 2457.5,344.167 2457.5,354.5C 2456.6,355.209 2456.26,356.209 2456.5,357.5C 2393.83,357.5 2331.17,357.5 2268.5,357.5C 2276.95,404.949 2305.28,429.615 2353.5,431.5C 2385.26,431.73 2414.59,423.563 2441.5,407C 2443.47,406.505 2445.47,406.338 2447.5,406.5C 2447.67,421.837 2447.5,437.17 2447,452.5C 2430.14,462.504 2411.98,469.004 2392.5,472C 2360.6,478.245 2329.26,476.245 2298.5,466C 2254.87,446.693 2228.7,413.526 2220,366.5C 2213.29,325.343 2221.63,287.677 2245,253.5C 2276.23,216.195 2316.06,201.362 2364.5,209C 2403.76,215.269 2430.93,236.769 2446,273.5C 2452.07,289.787 2455.91,306.454 2457.5,323.5 Z M 2331.5,251.5 C 2363.09,247.372 2385.92,259.372 2400,287.5C 2405.19,299.296 2408.03,311.629 2408.5,324.5C 2361.83,324.5 2315.17,324.5 2268.5,324.5C 2271.44,296.113 2284.77,274.28 2308.5,259C 2315.99,255.558 2323.66,253.058 2331.5,251.5 Z"/></g>
<g><path style="opacity:0.983" fill="#fefefe" d="M 708.5,213.5 C 724.833,213.5 741.167,213.5 757.5,213.5C 757.333,258.168 757.5,302.835 758,347.5C 762.006,397.507 789.006,423.84 839,426.5C 883.138,425.021 909.471,402.687 918,359.5C 918.966,353.87 919.633,348.204 920,342.5C 920.5,299.501 920.667,256.501 920.5,213.5C 937.167,213.5 953.833,213.5 970.5,213.5C 970.667,258.835 970.5,304.168 970,349.5C 969.296,385.05 956.462,415.216 931.5,440C 904.447,461.628 873.447,471.795 838.5,470.5C 760.203,468.369 717.037,428.369 709,350.5C 708.5,304.835 708.333,259.168 708.5,213.5 Z"/></g>
<g><path style="opacity:0.98" fill="#fefefe" d="M 1497.5,215.5 C 1514.17,215.5 1530.83,215.5 1547.5,215.5C 1547.02,274.871 1547.52,334.204 1549,393.5C 1554.31,410.143 1565.48,420.643 1582.5,425C 1600.04,428.477 1617.38,427.477 1634.5,422C 1645.74,418.81 1656.58,414.643 1667,409.5C 1667.5,344.834 1667.67,280.168 1667.5,215.5C 1684.17,215.5 1700.83,215.5 1717.5,215.5C 1717.67,306.834 1717.5,398.167 1717,489.5C 1714.18,546.654 1684.68,580.487 1628.5,591C 1586.5,596.001 1547.34,587.835 1511,566.5C 1510.5,551.504 1510.33,536.504 1510.5,521.5C 1512.53,521.338 1514.53,521.505 1516.5,522C 1550.63,540.827 1586.97,547.827 1625.5,543C 1650.58,535.069 1664.41,517.903 1667,491.5C 1667.83,478.487 1667.67,465.487 1666.5,452.5C 1646.75,461.915 1626.09,468.415 1604.5,472C 1568.86,474.46 1538.7,462.96 1514,437.5C 1504.53,424.776 1499.2,410.443 1498,394.5C 1497.5,334.834 1497.33,275.168 1497.5,215.5 Z"/></g>
<g><path style="opacity:0.981" fill="#fefefe" d="M 178.5,291.5 C 193.167,291.5 207.833,291.5 222.5,291.5C 222.333,318.502 222.5,345.502 223,372.5C 231.056,415.226 256.723,438.226 300,441.5C 342.864,438.303 368.53,415.636 377,373.5C 377.5,346.169 377.667,318.835 377.5,291.5C 392.5,291.5 407.5,291.5 422.5,291.5C 422.927,322.193 422.427,352.86 421,383.5C 410.995,432.174 382.495,464.674 335.5,481C 277.419,494.424 231.252,476.924 197,428.5C 188.26,414.682 182.593,399.682 180,383.5C 178.564,352.863 178.064,322.196 178.5,291.5 Z"/></g>
</svg>
