<svg width="18" height="19" viewBox="0 0 18 19" fill="none" xmlns="http://www.w3.org/2000/svg">
<path d="M4.5 3.5H10.5C11.2956 3.5 12.0587 3.81607 12.6213 4.37868C13.1839 4.94129 13.5 5.70435 13.5 6.5C13.5 7.29565 13.1839 8.05871 12.6213 8.62132C12.0587 9.18393 11.2956 9.5 10.5 9.5H4.5V3.5Z" stroke="#666666" stroke-linecap="round" stroke-linejoin="round"/>
<path d="M4.5 9.5H11.25C12.0456 9.5 12.8087 9.81607 13.3713 10.3787C13.9339 10.9413 14.25 11.7044 14.25 12.5C14.25 13.2956 13.9339 14.0587 13.3713 14.6213C12.8087 15.1839 12.0456 15.5 11.25 15.5H4.5V9.5Z" stroke="#666666" stroke-linecap="round" stroke-linejoin="round"/>
</svg>
