<svg width="18" height="19" viewBox="0 0 18 19" fill="none" xmlns="http://www.w3.org/2000/svg">
<path d="M7.5 10.25C7.82209 10.6806 8.23302 11.0369 8.70491 11.2947C9.17681 11.5525 9.69863 11.7058 10.235 11.7442C10.7713 11.7826 11.3097 11.7052 11.8135 11.5173C12.3173 11.3294 12.7748 11.0353 13.155 10.655L15.405 8.40497C16.0881 7.69772 16.4661 6.75046 16.4575 5.76722C16.449 4.78398 16.0546 3.84343 15.3593 3.14815C14.664 2.45287 13.7235 2.05849 12.7403 2.04995C11.757 2.0414 10.8098 2.41938 10.1025 3.10247L8.8125 4.38497" stroke="#666666" stroke-linecap="round" stroke-linejoin="round"/>
<path d="M10.4999 8.74992C10.1778 8.31933 9.76689 7.96304 9.29499 7.70522C8.8231 7.4474 8.30127 7.29409 7.76492 7.25567C7.22856 7.21726 6.69022 7.29465 6.1864 7.48259C5.68258 7.67053 5.22507 7.96462 4.84491 8.34492L2.59491 10.5949C1.91181 11.3022 1.53383 12.2494 1.54238 13.2327C1.55092 14.2159 1.94531 15.1565 2.64059 15.8517C3.33587 16.547 4.27641 16.9414 5.25965 16.95C6.24289 16.9585 7.19015 16.5805 7.89741 15.8974L9.17991 14.6149" stroke="#666666" stroke-linecap="round" stroke-linejoin="round"/>
</svg>
